<svg width="1280" height="640" viewBox="0 0 1280 640" fill="none" xmlns="http://www.w3.org/2000/svg">
<path d="M40 28.3333V51.6666M28.3333 40H51.6667" stroke="black" stroke-opacity="0.05" stroke-width="3.5" stroke-linecap="round" stroke-linejoin="round"/>
<path d="M120 28.3333V51.6666M108.333 40H131.667" stroke="black" stroke-opacity="0.05" stroke-width="3.5" stroke-linecap="round" stroke-linejoin="round"/>
<path d="M200 28.3333V51.6666M188.333 40H211.667" stroke="black" stroke-opacity="0.05" stroke-width="3.5" stroke-linecap="round" stroke-linejoin="round"/>
<path d="M280 28.3333V51.6666M268.333 40H291.667" stroke="black" stroke-opacity="0.05" stroke-width="3.5" stroke-linecap="round" stroke-linejoin="round"/>
<path d="M360 28.3333V51.6666M348.333 40H371.667" stroke="black" stroke-opacity="0.05" stroke-width="3.5" stroke-linecap="round" stroke-linejoin="round"/>
<path d="M440 28.3333V51.6666M428.333 40H451.667" stroke="black" stroke-opacity="0.05" stroke-width="3.5" stroke-linecap="round" stroke-linejoin="round"/>
<path d="M520 28.3333V51.6666M508.333 40H531.667" stroke="black" stroke-opacity="0.05" stroke-width="3.5" stroke-linecap="round" stroke-linejoin="round"/>
<path d="M600 28.3333V51.6666M588.333 40H611.667" stroke="black" stroke-opacity="0.05" stroke-width="3.5" stroke-linecap="round" stroke-linejoin="round"/>
<path d="M680 28.3333V51.6666M668.333 40H691.667" stroke="black" stroke-opacity="0.05" stroke-width="3.5" stroke-linecap="round" stroke-linejoin="round"/>
<path d="M760 28.3333V51.6666M748.333 40H771.667" stroke="black" stroke-opacity="0.05" stroke-width="3.5" stroke-linecap="round" stroke-linejoin="round"/>
<path d="M840 28.3333V51.6666M828.333 40H851.667" stroke="black" stroke-opacity="0.05" stroke-width="3.5" stroke-linecap="round" stroke-linejoin="round"/>
<path d="M920 28.3333V51.6666M908.333 40H931.667" stroke="black" stroke-opacity="0.05" stroke-width="3.5" stroke-linecap="round" stroke-linejoin="round"/>
<path d="M1000 28.3333V51.6666M988.333 40H1011.67" stroke="black" stroke-opacity="0.05" stroke-width="3.5" stroke-linecap="round" stroke-linejoin="round"/>
<path d="M1080 28.3333V51.6666M1068.33 40H1091.67" stroke="black" stroke-opacity="0.05" stroke-width="3.5" stroke-linecap="round" stroke-linejoin="round"/>
<path d="M1160 28.3333V51.6666M1148.33 40H1171.67" stroke="black" stroke-opacity="0.05" stroke-width="3.5" stroke-linecap="round" stroke-linejoin="round"/>
<path d="M1240 28.3333V51.6666M1228.33 40H1251.67" stroke="black" stroke-opacity="0.05" stroke-width="3.5" stroke-linecap="round" stroke-linejoin="round"/>
<path d="M40 108.333V131.667M28.3333 120H51.6667" stroke="black" stroke-opacity="0.05" stroke-width="3.5" stroke-linecap="round" stroke-linejoin="round"/>
<path d="M120 108.333V131.667M108.333 120H131.667" stroke="black" stroke-opacity="0.05" stroke-width="3.5" stroke-linecap="round" stroke-linejoin="round"/>
<path d="M200 108.333V131.667M188.333 120H211.667" stroke="black" stroke-opacity="0.05" stroke-width="3.5" stroke-linecap="round" stroke-linejoin="round"/>
<path d="M280 108.333V131.667M268.333 120H291.667" stroke="black" stroke-opacity="0.05" stroke-width="3.5" stroke-linecap="round" stroke-linejoin="round"/>
<path d="M360 108.333V131.667M348.333 120H371.667" stroke="black" stroke-opacity="0.05" stroke-width="3.5" stroke-linecap="round" stroke-linejoin="round"/>
<path d="M440 108.333V131.667M428.333 120H451.667" stroke="black" stroke-opacity="0.05" stroke-width="3.5" stroke-linecap="round" stroke-linejoin="round"/>
<path d="M520 108.333V131.667M508.333 120H531.667" stroke="black" stroke-opacity="0.05" stroke-width="3.5" stroke-linecap="round" stroke-linejoin="round"/>
<path d="M600 108.333V131.667M588.333 120H611.667" stroke="black" stroke-opacity="0.05" stroke-width="3.5" stroke-linecap="round" stroke-linejoin="round"/>
<path d="M680 108.333V131.667M668.333 120H691.667" stroke="black" stroke-opacity="0.05" stroke-width="3.5" stroke-linecap="round" stroke-linejoin="round"/>
<path d="M760 108.333V131.667M748.333 120H771.667" stroke="black" stroke-opacity="0.05" stroke-width="3.5" stroke-linecap="round" stroke-linejoin="round"/>
<path d="M840 108.333V131.667M828.333 120H851.667" stroke="black" stroke-opacity="0.05" stroke-width="3.5" stroke-linecap="round" stroke-linejoin="round"/>
<path d="M920 108.333V131.667M908.333 120H931.667" stroke="black" stroke-opacity="0.05" stroke-width="3.5" stroke-linecap="round" stroke-linejoin="round"/>
<path d="M1000 108.333V131.667M988.333 120H1011.67" stroke="black" stroke-opacity="0.05" stroke-width="3.5" stroke-linecap="round" stroke-linejoin="round"/>
<path d="M1080 108.333V131.667M1068.33 120H1091.67" stroke="black" stroke-opacity="0.05" stroke-width="3.5" stroke-linecap="round" stroke-linejoin="round"/>
<path d="M1160 108.333V131.667M1148.33 120H1171.67" stroke="black" stroke-opacity="0.05" stroke-width="3.5" stroke-linecap="round" stroke-linejoin="round"/>
<path d="M1240 108.333V131.667M1228.33 120H1251.67" stroke="black" stroke-opacity="0.05" stroke-width="3.5" stroke-linecap="round" stroke-linejoin="round"/>
<path d="M40 188.333V211.667M28.3333 200H51.6667" stroke="black" stroke-opacity="0.05" stroke-width="3.5" stroke-linecap="round" stroke-linejoin="round"/>
<path d="M120 188.333V211.667M108.333 200H131.667" stroke="black" stroke-opacity="0.05" stroke-width="3.5" stroke-linecap="round" stroke-linejoin="round"/>
<path d="M200 188.333V211.667M188.333 200H211.667" stroke="black" stroke-opacity="0.05" stroke-width="3.5" stroke-linecap="round" stroke-linejoin="round"/>
<path d="M280 188.333V211.667M268.333 200H291.667" stroke="black" stroke-opacity="0.05" stroke-width="3.5" stroke-linecap="round" stroke-linejoin="round"/>
<path d="M360 188.333V211.667M348.333 200H371.667" stroke="black" stroke-opacity="0.05" stroke-width="3.5" stroke-linecap="round" stroke-linejoin="round"/>
<path d="M440 188.333V211.667M428.333 200H451.667" stroke="black" stroke-opacity="0.05" stroke-width="3.5" stroke-linecap="round" stroke-linejoin="round"/>
<path d="M520 188.333V211.667M508.333 200H531.667" stroke="black" stroke-opacity="0.05" stroke-width="3.5" stroke-linecap="round" stroke-linejoin="round"/>
<path d="M600 188.333V211.667M588.333 200H611.667" stroke="black" stroke-opacity="0.05" stroke-width="3.5" stroke-linecap="round" stroke-linejoin="round"/>
<path d="M680 188.333V211.667M668.333 200H691.667" stroke="black" stroke-opacity="0.05" stroke-width="3.5" stroke-linecap="round" stroke-linejoin="round"/>
<path d="M760 188.333V211.667M748.333 200H771.667" stroke="black" stroke-opacity="0.05" stroke-width="3.5" stroke-linecap="round" stroke-linejoin="round"/>
<path d="M840 188.333V211.667M828.333 200H851.667" stroke="black" stroke-opacity="0.05" stroke-width="3.5" stroke-linecap="round" stroke-linejoin="round"/>
<path d="M920 188.333V211.667M908.333 200H931.667" stroke="black" stroke-opacity="0.05" stroke-width="3.5" stroke-linecap="round" stroke-linejoin="round"/>
<path d="M1000 188.333V211.667M988.333 200H1011.67" stroke="black" stroke-opacity="0.05" stroke-width="3.5" stroke-linecap="round" stroke-linejoin="round"/>
<path d="M1080 188.333V211.667M1068.33 200H1091.67" stroke="black" stroke-opacity="0.05" stroke-width="3.5" stroke-linecap="round" stroke-linejoin="round"/>
<path d="M1160 188.333V211.667M1148.33 200H1171.67" stroke="black" stroke-opacity="0.05" stroke-width="3.5" stroke-linecap="round" stroke-linejoin="round"/>
<path d="M1240 188.333V211.667M1228.33 200H1251.67" stroke="black" stroke-opacity="0.05" stroke-width="3.5" stroke-linecap="round" stroke-linejoin="round"/>
<path d="M40 268.333V291.667M28.3333 280H51.6667" stroke="black" stroke-opacity="0.05" stroke-width="3.5" stroke-linecap="round" stroke-linejoin="round"/>
<path d="M120 268.333V291.667M108.333 280H131.667" stroke="black" stroke-opacity="0.05" stroke-width="3.5" stroke-linecap="round" stroke-linejoin="round"/>
<path d="M200 268.333V291.667M188.333 280H211.667" stroke="black" stroke-opacity="0.05" stroke-width="3.5" stroke-linecap="round" stroke-linejoin="round"/>
<path d="M280 268.333V291.667M268.333 280H291.667" stroke="black" stroke-opacity="0.05" stroke-width="3.5" stroke-linecap="round" stroke-linejoin="round"/>
<path d="M360 268.333V291.667M348.333 280H371.667" stroke="black" stroke-opacity="0.05" stroke-width="3.5" stroke-linecap="round" stroke-linejoin="round"/>
<path d="M440 268.333V291.667M428.333 280H451.667" stroke="black" stroke-opacity="0.05" stroke-width="3.5" stroke-linecap="round" stroke-linejoin="round"/>
<path d="M520 268.333V291.667M508.333 280H531.667" stroke="black" stroke-opacity="0.05" stroke-width="3.5" stroke-linecap="round" stroke-linejoin="round"/>
<path d="M600 268.333V291.667M588.333 280H611.667" stroke="black" stroke-opacity="0.05" stroke-width="3.5" stroke-linecap="round" stroke-linejoin="round"/>
<path d="M680 268.333V291.667M668.333 280H691.667" stroke="black" stroke-opacity="0.05" stroke-width="3.5" stroke-linecap="round" stroke-linejoin="round"/>
<path d="M760 268.333V291.667M748.333 280H771.667" stroke="black" stroke-opacity="0.05" stroke-width="3.5" stroke-linecap="round" stroke-linejoin="round"/>
<path d="M840 268.333V291.667M828.333 280H851.667" stroke="black" stroke-opacity="0.05" stroke-width="3.5" stroke-linecap="round" stroke-linejoin="round"/>
<path d="M920 268.333V291.667M908.333 280H931.667" stroke="black" stroke-opacity="0.05" stroke-width="3.5" stroke-linecap="round" stroke-linejoin="round"/>
<path d="M1000 268.333V291.667M988.333 280H1011.67" stroke="black" stroke-opacity="0.05" stroke-width="3.5" stroke-linecap="round" stroke-linejoin="round"/>
<path d="M1080 268.333V291.667M1068.33 280H1091.67" stroke="black" stroke-opacity="0.05" stroke-width="3.5" stroke-linecap="round" stroke-linejoin="round"/>
<path d="M1160 268.333V291.667M1148.33 280H1171.67" stroke="black" stroke-opacity="0.05" stroke-width="3.5" stroke-linecap="round" stroke-linejoin="round"/>
<path d="M1240 268.333V291.667M1228.33 280H1251.67" stroke="black" stroke-opacity="0.05" stroke-width="3.5" stroke-linecap="round" stroke-linejoin="round"/>
<path d="M40 348.333V371.667M28.3333 360H51.6667" stroke="black" stroke-opacity="0.05" stroke-width="3.5" stroke-linecap="round" stroke-linejoin="round"/>
<path d="M120 348.333V371.667M108.333 360H131.667" stroke="black" stroke-opacity="0.05" stroke-width="3.5" stroke-linecap="round" stroke-linejoin="round"/>
<path d="M200 348.333V371.667M188.333 360H211.667" stroke="black" stroke-opacity="0.05" stroke-width="3.5" stroke-linecap="round" stroke-linejoin="round"/>
<path d="M280 348.333V371.667M268.333 360H291.667" stroke="black" stroke-opacity="0.05" stroke-width="3.5" stroke-linecap="round" stroke-linejoin="round"/>
<path d="M360 348.333V371.667M348.333 360H371.667" stroke="black" stroke-opacity="0.05" stroke-width="3.5" stroke-linecap="round" stroke-linejoin="round"/>
<path d="M440 348.333V371.667M428.333 360H451.667" stroke="black" stroke-opacity="0.05" stroke-width="3.5" stroke-linecap="round" stroke-linejoin="round"/>
<path d="M520 348.333V371.667M508.333 360H531.667" stroke="black" stroke-opacity="0.05" stroke-width="3.5" stroke-linecap="round" stroke-linejoin="round"/>
<path d="M600 348.333V371.667M588.333 360H611.667" stroke="black" stroke-opacity="0.05" stroke-width="3.5" stroke-linecap="round" stroke-linejoin="round"/>
<path d="M680 348.333V371.667M668.333 360H691.667" stroke="black" stroke-opacity="0.05" stroke-width="3.5" stroke-linecap="round" stroke-linejoin="round"/>
<path d="M760 348.333V371.667M748.333 360H771.667" stroke="black" stroke-opacity="0.05" stroke-width="3.5" stroke-linecap="round" stroke-linejoin="round"/>
<path d="M840 348.333V371.667M828.333 360H851.667" stroke="black" stroke-opacity="0.05" stroke-width="3.5" stroke-linecap="round" stroke-linejoin="round"/>
<path d="M920 348.333V371.667M908.333 360H931.667" stroke="black" stroke-opacity="0.05" stroke-width="3.5" stroke-linecap="round" stroke-linejoin="round"/>
<path d="M1000 348.333V371.667M988.333 360H1011.67" stroke="black" stroke-opacity="0.05" stroke-width="3.5" stroke-linecap="round" stroke-linejoin="round"/>
<path d="M1080 348.333V371.667M1068.33 360H1091.67" stroke="black" stroke-opacity="0.05" stroke-width="3.5" stroke-linecap="round" stroke-linejoin="round"/>
<path d="M1160 348.333V371.667M1148.33 360H1171.67" stroke="black" stroke-opacity="0.05" stroke-width="3.5" stroke-linecap="round" stroke-linejoin="round"/>
<path d="M1240 348.333V371.667M1228.33 360H1251.67" stroke="black" stroke-opacity="0.05" stroke-width="3.5" stroke-linecap="round" stroke-linejoin="round"/>
<path d="M40 428.333V451.667M28.3333 440H51.6667" stroke="black" stroke-opacity="0.05" stroke-width="3.5" stroke-linecap="round" stroke-linejoin="round"/>
<path d="M120 428.333V451.667M108.333 440H131.667" stroke="black" stroke-opacity="0.05" stroke-width="3.5" stroke-linecap="round" stroke-linejoin="round"/>
<path d="M200 428.333V451.667M188.333 440H211.667" stroke="black" stroke-opacity="0.05" stroke-width="3.5" stroke-linecap="round" stroke-linejoin="round"/>
<path d="M280 428.333V451.667M268.333 440H291.667" stroke="black" stroke-opacity="0.05" stroke-width="3.5" stroke-linecap="round" stroke-linejoin="round"/>
<path d="M360 428.333V451.667M348.333 440H371.667" stroke="black" stroke-opacity="0.05" stroke-width="3.5" stroke-linecap="round" stroke-linejoin="round"/>
<path d="M440 428.333V451.667M428.333 440H451.667" stroke="black" stroke-opacity="0.05" stroke-width="3.5" stroke-linecap="round" stroke-linejoin="round"/>
<path d="M520 428.333V451.667M508.333 440H531.667" stroke="black" stroke-opacity="0.05" stroke-width="3.5" stroke-linecap="round" stroke-linejoin="round"/>
<path d="M600 428.333V451.667M588.333 440H611.667" stroke="black" stroke-opacity="0.05" stroke-width="3.5" stroke-linecap="round" stroke-linejoin="round"/>
<path d="M680 428.333V451.667M668.333 440H691.667" stroke="black" stroke-opacity="0.05" stroke-width="3.5" stroke-linecap="round" stroke-linejoin="round"/>
<path d="M760 428.333V451.667M748.333 440H771.667" stroke="black" stroke-opacity="0.05" stroke-width="3.5" stroke-linecap="round" stroke-linejoin="round"/>
<path d="M840 428.333V451.667M828.333 440H851.667" stroke="black" stroke-opacity="0.05" stroke-width="3.5" stroke-linecap="round" stroke-linejoin="round"/>
<path d="M920 428.333V451.667M908.333 440H931.667" stroke="black" stroke-opacity="0.05" stroke-width="3.5" stroke-linecap="round" stroke-linejoin="round"/>
<path d="M1000 428.333V451.667M988.333 440H1011.67" stroke="black" stroke-opacity="0.05" stroke-width="3.5" stroke-linecap="round" stroke-linejoin="round"/>
<path d="M1080 428.333V451.667M1068.33 440H1091.67" stroke="black" stroke-opacity="0.05" stroke-width="3.5" stroke-linecap="round" stroke-linejoin="round"/>
<path d="M1160 428.333V451.667M1148.33 440H1171.67" stroke="black" stroke-opacity="0.05" stroke-width="3.5" stroke-linecap="round" stroke-linejoin="round"/>
<path d="M1240 428.333V451.667M1228.33 440H1251.67" stroke="black" stroke-opacity="0.05" stroke-width="3.5" stroke-linecap="round" stroke-linejoin="round"/>
<path d="M40 508.333V531.667M28.3333 520H51.6667" stroke="black" stroke-opacity="0.05" stroke-width="3.5" stroke-linecap="round" stroke-linejoin="round"/>
<path d="M120 508.333V531.667M108.333 520H131.667" stroke="black" stroke-opacity="0.05" stroke-width="3.5" stroke-linecap="round" stroke-linejoin="round"/>
<path d="M200 508.333V531.667M188.333 520H211.667" stroke="black" stroke-opacity="0.05" stroke-width="3.5" stroke-linecap="round" stroke-linejoin="round"/>
<path d="M280 508.333V531.667M268.333 520H291.667" stroke="black" stroke-opacity="0.05" stroke-width="3.5" stroke-linecap="round" stroke-linejoin="round"/>
<path d="M360 508.333V531.667M348.333 520H371.667" stroke="black" stroke-opacity="0.05" stroke-width="3.5" stroke-linecap="round" stroke-linejoin="round"/>
<path d="M440 508.333V531.667M428.333 520H451.667" stroke="black" stroke-opacity="0.05" stroke-width="3.5" stroke-linecap="round" stroke-linejoin="round"/>
<path d="M520 508.333V531.667M508.333 520H531.667" stroke="black" stroke-opacity="0.05" stroke-width="3.5" stroke-linecap="round" stroke-linejoin="round"/>
<path d="M600 508.333V531.667M588.333 520H611.667" stroke="black" stroke-opacity="0.05" stroke-width="3.5" stroke-linecap="round" stroke-linejoin="round"/>
<path d="M680 508.333V531.667M668.333 520H691.667" stroke="black" stroke-opacity="0.05" stroke-width="3.5" stroke-linecap="round" stroke-linejoin="round"/>
<path d="M760 508.333V531.667M748.333 520H771.667" stroke="black" stroke-opacity="0.05" stroke-width="3.5" stroke-linecap="round" stroke-linejoin="round"/>
<path d="M840 508.333V531.667M828.333 520H851.667" stroke="black" stroke-opacity="0.05" stroke-width="3.5" stroke-linecap="round" stroke-linejoin="round"/>
<path d="M920 508.333V531.667M908.333 520H931.667" stroke="black" stroke-opacity="0.05" stroke-width="3.5" stroke-linecap="round" stroke-linejoin="round"/>
<path d="M1000 508.333V531.667M988.333 520H1011.67" stroke="black" stroke-opacity="0.05" stroke-width="3.5" stroke-linecap="round" stroke-linejoin="round"/>
<path d="M1080 508.333V531.667M1068.33 520H1091.67" stroke="black" stroke-opacity="0.05" stroke-width="3.5" stroke-linecap="round" stroke-linejoin="round"/>
<path d="M1160 508.333V531.667M1148.33 520H1171.67" stroke="black" stroke-opacity="0.05" stroke-width="3.5" stroke-linecap="round" stroke-linejoin="round"/>
<path d="M1240 508.333V531.667M1228.33 520H1251.67" stroke="black" stroke-opacity="0.05" stroke-width="3.5" stroke-linecap="round" stroke-linejoin="round"/>
<path d="M40 588.333V611.667M28.3333 600H51.6667" stroke="black" stroke-opacity="0.05" stroke-width="3.5" stroke-linecap="round" stroke-linejoin="round"/>
<path d="M120 588.333V611.667M108.333 600H131.667" stroke="black" stroke-opacity="0.05" stroke-width="3.5" stroke-linecap="round" stroke-linejoin="round"/>
<path d="M200 588.333V611.667M188.333 600H211.667" stroke="black" stroke-opacity="0.05" stroke-width="3.5" stroke-linecap="round" stroke-linejoin="round"/>
<path d="M280 588.333V611.667M268.333 600H291.667" stroke="black" stroke-opacity="0.05" stroke-width="3.5" stroke-linecap="round" stroke-linejoin="round"/>
<path d="M360 588.333V611.667M348.333 600H371.667" stroke="black" stroke-opacity="0.05" stroke-width="3.5" stroke-linecap="round" stroke-linejoin="round"/>
<path d="M440 588.333V611.667M428.333 600H451.667" stroke="black" stroke-opacity="0.05" stroke-width="3.5" stroke-linecap="round" stroke-linejoin="round"/>
<path d="M520 588.333V611.667M508.333 600H531.667" stroke="black" stroke-opacity="0.05" stroke-width="3.5" stroke-linecap="round" stroke-linejoin="round"/>
<path d="M600 588.333V611.667M588.333 600H611.667" stroke="black" stroke-opacity="0.05" stroke-width="3.5" stroke-linecap="round" stroke-linejoin="round"/>
<path d="M680 588.333V611.667M668.333 600H691.667" stroke="black" stroke-opacity="0.05" stroke-width="3.5" stroke-linecap="round" stroke-linejoin="round"/>
<path d="M760 588.333V611.667M748.333 600H771.667" stroke="black" stroke-opacity="0.05" stroke-width="3.5" stroke-linecap="round" stroke-linejoin="round"/>
<path d="M840 588.333V611.667M828.333 600H851.667" stroke="black" stroke-opacity="0.05" stroke-width="3.5" stroke-linecap="round" stroke-linejoin="round"/>
<path d="M920 588.333V611.667M908.333 600H931.667" stroke="black" stroke-opacity="0.05" stroke-width="3.5" stroke-linecap="round" stroke-linejoin="round"/>
<path d="M1000 588.333V611.667M988.333 600H1011.67" stroke="black" stroke-opacity="0.05" stroke-width="3.5" stroke-linecap="round" stroke-linejoin="round"/>
<path d="M1080 588.333V611.667M1068.33 600H1091.67" stroke="black" stroke-opacity="0.05" stroke-width="3.5" stroke-linecap="round" stroke-linejoin="round"/>
<path d="M1160 588.333V611.667M1148.33 600H1171.67" stroke="black" stroke-opacity="0.05" stroke-width="3.5" stroke-linecap="round" stroke-linejoin="round"/>
<path d="M1240 588.333V611.667M1228.33 600H1251.67" stroke="black" stroke-opacity="0.05" stroke-width="3.5" stroke-linecap="round" stroke-linejoin="round"/>
<g clip-path="url(#clip0_5_133)">
<path d="M632.387 94.1413C633.008 95.0676 633.34 96.1575 633.34 97.2725C633.34 98.3876 633.008 99.4774 632.387 100.404C631.757 101.27 631 101.705 630.107 101.705C629.215 101.705 628.454 101.27 627.82 100.404C627.206 99.4749 626.878 98.386 626.878 97.2725C626.878 96.159 627.206 95.0701 627.82 94.1413C628.056 93.7467 628.391 93.4201 628.791 93.1934C629.192 92.9666 629.644 92.8475 630.104 92.8475C630.564 92.8475 631.016 92.9666 631.416 93.1934C631.816 93.4201 632.151 93.7467 632.387 94.1413Z" fill="#303133" stroke="#303133" stroke-width="1.125" stroke-miterlimit="10"/>
<path d="M652.094 95.03L646 97.8237C645.713 97.9625 645.384 97.9906 645.077 97.9025C644.938 97.8695 644.808 97.805 644.698 97.714C644.587 97.623 644.499 97.5079 644.44 97.3775C644.377 97.2484 644.345 97.1067 644.345 96.9631C644.345 96.8196 644.377 96.6779 644.44 96.5487C644.575 96.2605 644.811 96.0321 645.104 95.9075L651.216 93.125C651.503 92.9837 651.831 92.953 652.139 93.0387C652.278 93.0742 652.407 93.14 652.517 93.2315C652.627 93.3229 652.716 93.4377 652.776 93.5675C652.836 93.698 652.865 93.8405 652.862 93.984C652.859 94.1276 652.823 94.2685 652.758 94.3962C652.624 94.6864 652.388 94.9164 652.094 95.0412" fill="#303133"/>
<path d="M652.094 95.03L646 97.8237C645.713 97.9625 645.384 97.9906 645.077 97.9025C644.938 97.8695 644.808 97.805 644.698 97.714C644.587 97.623 644.499 97.5079 644.44 97.3775C644.377 97.2484 644.345 97.1067 644.345 96.9631C644.345 96.8196 644.377 96.6779 644.44 96.5487C644.575 96.2605 644.811 96.0321 645.104 95.9075L651.216 93.125C651.503 92.9837 651.831 92.953 652.139 93.0387C652.278 93.0742 652.407 93.14 652.517 93.2315C652.627 93.3229 652.716 93.4377 652.776 93.5675C652.836 93.698 652.865 93.8405 652.862 93.984C652.859 94.1276 652.823 94.2685 652.758 94.3962C652.624 94.6864 652.388 94.9164 652.094 95.0412" stroke="#303133" stroke-width="1.125" stroke-miterlimit="10"/>
<path d="M652.097 98.8625L646 96.0687C645.714 95.9289 645.387 95.8995 645.081 95.9862C644.941 96.0209 644.811 96.0867 644.699 96.1787C644.588 96.2707 644.499 96.3867 644.439 96.5178C644.379 96.649 644.349 96.792 644.352 96.9363C644.355 97.0806 644.39 97.2224 644.455 97.3512C644.588 97.6404 644.825 97.8691 645.119 97.9925L651.209 100.786C651.495 100.928 651.824 100.957 652.131 100.869C652.271 100.833 652.401 100.767 652.512 100.674C652.623 100.581 652.711 100.465 652.771 100.333C652.83 100.202 652.859 100.059 652.855 99.9144C652.852 99.7701 652.816 99.6284 652.75 99.5C652.616 99.2107 652.379 98.9811 652.086 98.855" fill="#303133"/>
<path d="M652.097 98.8625L646 96.0687C645.714 95.9289 645.387 95.8995 645.081 95.9862C644.941 96.0209 644.811 96.0867 644.699 96.1787C644.588 96.2707 644.499 96.3867 644.439 96.5178C644.379 96.649 644.349 96.792 644.352 96.9363C644.355 97.0806 644.39 97.2224 644.455 97.3512C644.588 97.6404 644.825 97.8691 645.119 97.9925L651.209 100.786C651.495 100.928 651.824 100.957 652.131 100.869C652.271 100.833 652.401 100.767 652.512 100.674C652.623 100.581 652.711 100.465 652.771 100.333C652.83 100.202 652.859 100.059 652.855 99.9144C652.852 99.7701 652.816 99.6284 652.75 99.5C652.616 99.2107 652.379 98.9811 652.086 98.855" stroke="#303133" stroke-width="1.125" stroke-miterlimit="10"/>
<path d="M670.285 124.955C670.116 125.626 669.854 125.986 669.494 126.035C669.119 126.087 668.785 125.81 668.444 125.21C668.067 124.512 667.828 123.748 667.743 122.96L660.888 73.535C660.759 72.7531 660.78 71.9538 660.951 71.18C661.116 70.5125 661.379 70.1562 661.739 70.1037C662.114 70.055 662.448 70.3287 662.793 70.925C663.152 71.5979 663.385 72.3314 663.479 73.0887L670.375 122.694C670.488 123.442 670.462 124.205 670.3 124.944" fill="#303133"/>
<path d="M670.285 124.955C670.116 125.626 669.854 125.986 669.494 126.035C669.119 126.087 668.785 125.81 668.444 125.21C668.067 124.512 667.828 123.748 667.743 122.96L660.888 73.535C660.759 72.7531 660.78 71.9538 660.951 71.18C661.116 70.5125 661.379 70.1562 661.739 70.1037C662.114 70.055 662.448 70.3287 662.793 70.925C663.152 71.5979 663.385 72.3314 663.479 73.0887L670.375 122.694C670.488 123.442 670.462 124.205 670.3 124.944" stroke="#303133" stroke-width="1.875" stroke-miterlimit="10"/>
<path d="M669.467 116.596L670.592 124.546C670.659 124.916 670.577 125.298 670.364 125.608C670.272 125.753 670.146 125.874 669.998 125.961C669.851 126.048 669.684 126.099 669.512 126.11C669.334 126.125 669.155 126.101 668.987 126.04C668.818 125.979 668.665 125.883 668.537 125.758C668.247 125.499 668.062 125.142 668.016 124.756L666.891 116.81C666.827 116.438 666.909 116.055 667.12 115.741C667.213 115.598 667.339 115.478 667.487 115.391C667.634 115.305 667.8 115.254 667.971 115.243C668.149 115.228 668.328 115.252 668.495 115.313C668.663 115.373 668.816 115.47 668.942 115.595C669.234 115.854 669.422 116.21 669.471 116.596" fill="#303133"/>
<path d="M669.467 116.596L670.592 124.546C670.659 124.916 670.577 125.298 670.364 125.608C670.272 125.753 670.146 125.874 669.998 125.961C669.851 126.048 669.684 126.099 669.512 126.11C669.334 126.125 669.155 126.101 668.987 126.04C668.818 125.979 668.665 125.883 668.537 125.758C668.247 125.499 668.062 125.142 668.016 124.756L666.891 116.81C666.827 116.438 666.909 116.055 667.12 115.741C667.213 115.598 667.339 115.478 667.487 115.391C667.634 115.305 667.8 115.254 667.971 115.243C668.149 115.228 668.328 115.252 668.495 115.313C668.663 115.373 668.816 115.47 668.942 115.595C669.234 115.854 669.422 116.21 669.471 116.596" stroke="#303133" stroke-width="1.875" stroke-miterlimit="10"/>
<path d="M661.979 74.8775L665.076 86.2925C665.166 86.6236 665.184 86.9702 665.129 87.3088C665.097 87.6051 664.974 87.8843 664.776 88.1075C664.703 88.1913 664.607 88.2524 664.5 88.2837C664.393 88.3149 664.279 88.3149 664.172 88.2837L656.796 86.1875C656.674 86.1446 656.562 86.0777 656.466 85.9908C656.37 85.9039 656.292 85.7986 656.237 85.6812C656.079 85.3863 655.988 85.0596 655.971 84.725C655.944 84.3924 655.997 84.058 656.125 83.75L660.392 74.4125C660.437 74.2992 660.504 74.1966 660.591 74.1113C660.677 74.026 660.781 73.9599 660.895 73.9175C661.005 73.884 661.123 73.8828 661.234 73.9141C661.345 73.9453 661.445 74.0076 661.521 74.0937C661.741 74.3041 661.895 74.5738 661.964 74.87" fill="#303133"/>
<path d="M661.979 74.8775L665.076 86.2925C665.166 86.6236 665.184 86.9702 665.129 87.3088C665.097 87.6051 664.974 87.8843 664.776 88.1075C664.703 88.1913 664.607 88.2524 664.5 88.2837C664.393 88.3149 664.279 88.3149 664.172 88.2837L656.796 86.1875C656.674 86.1446 656.562 86.0777 656.466 85.9908C656.37 85.9039 656.292 85.7986 656.237 85.6812C656.079 85.3863 655.988 85.0596 655.971 84.725C655.944 84.3924 655.997 84.058 656.125 83.75L660.392 74.4125C660.437 74.2992 660.504 74.1966 660.591 74.1113C660.677 74.026 660.781 73.9599 660.895 73.9175C661.005 73.884 661.123 73.8828 661.234 73.9141C661.345 73.9453 661.445 74.0076 661.521 74.0937C661.741 74.3041 661.895 74.5738 661.964 74.87" stroke="#303133" stroke-width="1.5" stroke-miterlimit="10"/>
<path d="M655.945 71.9413C655.956 71.5969 656.037 71.2585 656.185 70.9469C656.332 70.6354 656.541 70.3573 656.8 70.13C657.377 69.5964 658.108 69.259 658.889 69.1663C659.699 69.0431 660.528 69.155 661.277 69.4888C661.971 69.7726 662.545 70.2881 662.901 70.9475C663.063 71.2437 663.159 71.571 663.183 71.9075C663.206 72.2439 663.158 72.5815 663.04 72.8975C662.781 73.5788 662.275 74.1373 661.622 74.4613L659.564 72.0425L655.945 71.9413Z" fill="#303133" stroke="#303133" stroke-width="1.875" stroke-miterlimit="10"/>
<path d="M660.28 74.1425C660.441 73.1638 660.28 72.5938 659.785 72.4213C659.29 72.2488 658.611 72.5375 657.752 73.2763C657.242 73.7185 656.777 74.211 656.365 74.7463C656.489 74.51 656.624 74.27 656.77 74.0225C657.399 72.9256 658.202 71.9378 659.147 71.0975C660.007 70.3625 660.684 70.0788 661.176 70.2463C661.667 70.4188 661.832 70.9963 661.671 71.9675C661.435 73.1338 660.985 74.2462 660.344 75.2488C660.045 75.7524 659.716 76.2371 659.357 76.7C659.797 75.9013 660.109 75.0382 660.28 74.1425Z" fill="#303133" stroke="#303133" stroke-width="1.5" stroke-miterlimit="10"/>
<path d="M658.863 70.025L658.529 69.7438C658.289 69.5413 657.906 69.5825 657.374 69.8713C656.776 70.2143 656.248 70.6672 655.818 71.2063L645.813 83.1125C645.357 83.6299 645.002 84.2276 644.766 84.875C644.579 85.445 644.601 85.8313 644.841 86.0338L645.175 86.315C645.415 86.5138 645.798 86.4725 646.33 86.1875C646.927 85.8433 647.455 85.3906 647.886 84.8525L657.891 72.9463C658.347 72.4276 658.701 71.8286 658.938 71.18C659.125 70.61 659.103 70.2238 658.863 70.025Z" fill="#303133" stroke="#303133" stroke-width="1.875" stroke-miterlimit="10"/>
<path d="M643.675 84.3237C644.68 85.0737 645.175 85.9925 645.175 87.0575C645.175 88.1225 644.676 89.03 643.675 89.7837C642.615 90.5236 641.354 90.9203 640.062 90.9203C638.77 90.9203 637.508 90.5236 636.449 89.7837C635.449 89.0337 634.949 88.125 634.949 87.0575C634.959 86.5144 635.1 85.9818 635.362 85.5056C635.623 85.0294 635.996 84.6238 636.449 84.3237C637.51 83.5889 638.771 83.1953 640.062 83.1953C641.353 83.1953 642.613 83.5889 643.675 84.3237Z" fill="#303133" stroke="#303133" stroke-width="1.875" stroke-miterlimit="10"/>
<path d="M649.24 82.7675C649.087 83.3648 648.792 83.9166 648.381 84.3763L644.631 88.8763C644.243 89.3561 643.751 89.7409 643.191 90.0013C642.681 90.2225 642.288 90.2263 642.014 90.0013C641.74 89.78 641.665 89.4013 641.785 88.8763C641.943 88.2808 642.237 87.7301 642.644 87.2675L646.394 82.7675C646.78 82.2858 647.273 81.9006 647.834 81.6425C648.344 81.4175 648.738 81.4175 649.011 81.6425C649.285 81.8638 649.36 82.2388 649.236 82.7675" fill="#303133"/>
<path d="M649.24 82.7675C649.087 83.3648 648.792 83.9166 648.381 84.3763L644.631 88.8763C644.243 89.3561 643.751 89.7409 643.191 90.0013C642.681 90.2225 642.288 90.2263 642.014 90.0013C641.74 89.78 641.665 89.4013 641.785 88.8763C641.943 88.2808 642.237 87.7301 642.644 87.2675L646.394 82.7675C646.78 82.2858 647.273 81.9006 647.834 81.6425C648.344 81.4175 648.738 81.4175 649.011 81.6425C649.285 81.8638 649.36 82.2388 649.236 82.7675" stroke="#303133" stroke-width="1.875" stroke-miterlimit="10"/>
<path d="M646.27 82.8912V86.7687H638.751V82.8912H646.27Z" fill="#303133" stroke="#303133" stroke-width="1.5" stroke-miterlimit="10"/>
<path d="M674.226 98.6225C674.407 98.6885 674.57 98.7965 674.701 98.9375C674.832 99.0784 674.927 99.2484 674.98 99.4335C675.033 99.6187 675.041 99.8136 675.004 100.002C674.966 100.191 674.885 100.369 674.766 100.52C674.515 100.878 674.144 101.135 673.72 101.244L657.97 105.699C657.552 105.829 657.101 105.807 656.699 105.635C656.518 105.568 656.356 105.459 656.225 105.318C656.095 105.176 656 105.006 655.947 104.821C655.895 104.635 655.887 104.44 655.925 104.251C655.962 104.063 656.044 103.885 656.162 103.734C656.416 103.377 656.788 103.122 657.213 103.014L672.963 98.555C673.38 98.4255 673.829 98.4495 674.23 98.6225" fill="#303133"/>
<path d="M674.226 98.6225C674.407 98.6885 674.57 98.7965 674.701 98.9375C674.832 99.0784 674.927 99.2484 674.98 99.4335C675.033 99.6187 675.041 99.8136 675.004 100.002C674.966 100.191 674.885 100.369 674.766 100.52C674.515 100.878 674.144 101.135 673.72 101.244L657.97 105.699C657.552 105.829 657.101 105.807 656.699 105.635C656.518 105.568 656.356 105.459 656.225 105.318C656.095 105.176 656 105.006 655.947 104.821C655.895 104.635 655.887 104.44 655.925 104.251C655.962 104.063 656.044 103.885 656.162 103.734C656.416 103.377 656.788 103.122 657.213 103.014L672.963 98.555C673.38 98.4255 673.829 98.4495 674.23 98.6225" stroke="#303133" stroke-width="1.5" stroke-miterlimit="10"/>
<path d="M674.924 114.361C675.042 114.513 675.123 114.691 675.161 114.879C675.2 115.068 675.194 115.263 675.145 115.449C675.093 115.634 674.998 115.805 674.868 115.947C674.737 116.089 674.575 116.199 674.395 116.266C673.996 116.445 673.546 116.474 673.128 116.349L657.333 112.044C656.907 111.941 656.533 111.688 656.279 111.331C656.159 111.181 656.076 111.005 656.037 110.816C655.998 110.628 656.003 110.433 656.054 110.247C656.104 110.062 656.198 109.891 656.327 109.748C656.456 109.605 656.617 109.495 656.796 109.426C657.197 109.25 657.648 109.222 658.068 109.348L673.863 113.653C674.286 113.757 674.66 114.008 674.916 114.361" fill="#303133"/>
<path d="M674.924 114.361C675.042 114.513 675.123 114.691 675.161 114.879C675.2 115.068 675.194 115.263 675.145 115.449C675.093 115.634 674.998 115.805 674.868 115.947C674.737 116.089 674.575 116.199 674.395 116.266C673.996 116.445 673.546 116.474 673.128 116.349L657.333 112.044C656.907 111.941 656.533 111.688 656.279 111.331C656.159 111.181 656.076 111.005 656.037 110.816C655.998 110.628 656.003 110.433 656.054 110.247C656.104 110.062 656.198 109.891 656.327 109.748C656.456 109.605 656.617 109.495 656.796 109.426C657.197 109.25 657.648 109.222 658.068 109.348L673.863 113.653C674.286 113.757 674.66 114.008 674.916 114.361" stroke="#303133" stroke-width="1.5" stroke-miterlimit="10"/>
<path d="M636.449 84.3088C635.449 85.0588 634.949 85.97 634.949 87.0425C634.949 88.115 635.449 89.0238 636.449 89.7688C637.509 90.5084 638.771 90.905 640.064 90.905C641.357 90.905 642.618 90.5084 643.679 89.7688C644.679 89.0188 645.179 88.11 645.179 87.0425C645.179 85.975 644.679 85.0638 643.679 84.3088C642.617 83.5737 641.355 83.1799 640.064 83.1799C638.772 83.1799 637.511 83.5737 636.449 84.3088ZM641.151 107.559L642.899 105.534C643.199 105.185 643.244 104.893 643.034 104.653C642.864 104.509 642.668 104.402 642.455 104.338C642.243 104.273 642.02 104.253 641.8 104.278H638.331C637.739 104.278 637.337 104.405 637.127 104.653C636.917 104.9 636.944 105.185 637.24 105.534L638.984 107.559C639.117 107.721 639.285 107.851 639.475 107.939C639.665 108.027 639.873 108.072 640.082 108.069C640.287 108.069 640.49 108.024 640.675 107.936C640.86 107.847 641.023 107.719 641.151 107.559Z" fill="#303133" stroke="#303133" stroke-width="1.875" stroke-miterlimit="10"/>
<path d="M640.679 106.25C640.594 106.549 640.585 106.865 640.652 107.169C640.721 107.494 640.866 107.799 641.076 108.058C641.392 108.46 641.812 108.767 642.291 108.946C642.678 109.098 643.097 109.152 643.51 109.104C643.92 109.057 644.309 108.899 644.635 108.646C644.695 108.599 644.765 108.566 644.84 108.55C644.914 108.533 644.992 108.532 645.066 108.549C645.228 108.576 645.374 108.663 645.475 108.793C645.541 108.874 645.588 108.968 645.614 109.07C645.634 109.165 645.634 109.264 645.614 109.359C645.584 109.468 645.519 109.564 645.43 109.633C644.956 110.007 644.385 110.24 643.784 110.304C643.178 110.378 642.563 110.3 641.995 110.075C641.286 109.812 640.665 109.356 640.203 108.759C639.859 108.338 639.62 107.842 639.505 107.311C639.393 106.816 639.406 106.3 639.543 105.811C639.62 105.545 639.738 105.292 639.891 105.061C640.048 104.815 640.245 104.598 640.476 104.42C640.537 104.372 640.607 104.339 640.683 104.321C640.758 104.304 640.836 104.303 640.911 104.319C641.07 104.351 641.213 104.437 641.315 104.563C641.417 104.689 641.472 104.847 641.47 105.009C641.467 105.086 641.447 105.162 641.412 105.231C641.377 105.3 641.328 105.361 641.268 105.41C640.99 105.625 640.791 105.926 640.701 106.265" fill="#303133"/>
<path d="M640.679 106.25C640.594 106.549 640.585 106.865 640.652 107.169C640.721 107.494 640.866 107.799 641.076 108.058C641.392 108.46 641.812 108.767 642.291 108.946C642.678 109.098 643.097 109.152 643.51 109.104C643.92 109.057 644.309 108.899 644.635 108.646C644.695 108.599 644.765 108.566 644.84 108.55C644.914 108.533 644.992 108.532 645.066 108.549C645.228 108.576 645.374 108.663 645.475 108.793C645.541 108.874 645.588 108.968 645.614 109.07C645.634 109.165 645.634 109.264 645.614 109.359C645.584 109.468 645.519 109.564 645.43 109.633C644.956 110.007 644.385 110.24 643.784 110.304C643.178 110.378 642.563 110.3 641.995 110.075C641.286 109.812 640.665 109.356 640.203 108.759C639.859 108.338 639.62 107.842 639.505 107.311C639.393 106.816 639.406 106.3 639.543 105.811C639.62 105.545 639.738 105.292 639.891 105.061C640.048 104.815 640.245 104.598 640.476 104.42C640.537 104.372 640.607 104.339 640.683 104.321C640.758 104.304 640.836 104.303 640.911 104.319C641.07 104.351 641.213 104.437 641.315 104.563C641.417 104.689 641.472 104.847 641.47 105.009C641.467 105.086 641.447 105.162 641.412 105.231C641.377 105.3 641.328 105.361 641.268 105.41C640.99 105.625 640.791 105.926 640.701 106.265" stroke="#303133" stroke-width="1.49625" stroke-miterlimit="10"/>
<path d="M647.92 80.705L646.472 83.2175L643.641 82.91C645.267 82.6868 646.765 81.9061 647.879 80.7012H647.92" fill="#303133"/>
<path d="M647.92 80.705L646.472 83.2175L643.641 82.91C645.267 82.6868 646.765 81.9061 647.879 80.7012H647.92" stroke="#303133" stroke-width="1.875" stroke-miterlimit="10"/>
<path d="M663.021 88.8425C662.986 88.593 662.887 88.3567 662.734 88.1564C662.581 87.9561 662.379 87.7985 662.147 87.6988L663.58 87.515L663.021 88.8425Z" fill="#303133" stroke="#303133" stroke-width="1.875" stroke-miterlimit="10"/>
<path d="M609.858 124.951C610.023 125.623 610.285 125.983 610.645 126.035C611.02 126.084 611.358 125.806 611.699 125.206C612.074 124.508 612.312 123.744 612.4 122.956L619.251 73.52C619.378 72.738 619.357 71.939 619.188 71.165C619.019 70.4975 618.76 70.1413 618.4 70.0888C618.025 70.04 617.688 70.3138 617.346 70.91C616.986 71.5829 616.752 72.3163 616.656 73.0738L609.783 122.69C609.668 123.438 609.693 124.201 609.858 124.94" fill="#303133"/>
<path d="M609.858 124.951C610.023 125.623 610.285 125.983 610.645 126.035C611.02 126.084 611.358 125.806 611.699 125.206C612.074 124.508 612.312 123.744 612.4 122.956L619.251 73.52C619.378 72.738 619.357 71.939 619.188 71.165C619.019 70.4975 618.76 70.1413 618.4 70.0888C618.025 70.04 617.688 70.3138 617.346 70.91C616.986 71.5829 616.752 72.3163 616.656 73.0738L609.783 122.69C609.668 123.438 609.693 124.201 609.858 124.94" stroke="#303133" stroke-width="1.875" stroke-miterlimit="10"/>
<path d="M610.675 116.596L609.55 124.543C609.487 124.913 609.57 125.294 609.782 125.604C609.875 125.749 610 125.87 610.148 125.958C610.296 126.046 610.462 126.098 610.634 126.11C610.812 126.123 610.991 126.097 611.159 126.036C611.327 125.975 611.48 125.878 611.609 125.754C611.897 125.494 612.083 125.138 612.13 124.753L613.255 116.806C613.32 116.435 613.238 116.053 613.026 115.741C612.932 115.598 612.805 115.478 612.657 115.391C612.509 115.304 612.343 115.252 612.171 115.239C611.994 115.225 611.815 115.249 611.648 115.31C611.48 115.371 611.328 115.467 611.2 115.591C610.909 115.852 610.723 116.209 610.675 116.596Z" fill="#303133" stroke="#303133" stroke-width="1.875" stroke-miterlimit="10"/>
<path d="M618.164 74.8775L615.066 86.2925C614.973 86.623 614.954 86.97 615.01 87.3088C615.044 87.6034 615.167 87.8806 615.362 88.1038C615.436 88.1879 615.533 88.2492 615.641 88.2804C615.748 88.3116 615.862 88.3115 615.97 88.28L623.346 86.1838C623.468 86.1405 623.58 86.0735 623.676 85.9866C623.772 85.8997 623.85 85.7946 623.905 85.6775C624.063 85.3838 624.153 85.0582 624.167 84.725C624.192 84.3926 624.136 84.0592 624.002 83.7537L619.75 74.42C619.707 74.3056 619.64 74.2017 619.553 74.1156C619.467 74.0295 619.362 73.9632 619.247 73.9212C619.138 73.8885 619.021 73.8877 618.911 73.919C618.8 73.9502 618.701 74.0121 618.625 74.0975C618.405 74.3087 618.251 74.5799 618.183 74.8775" fill="#303133"/>
<path d="M618.164 74.8775L615.066 86.2925C614.973 86.623 614.954 86.97 615.01 87.3088C615.044 87.6034 615.167 87.8806 615.362 88.1038C615.436 88.1879 615.533 88.2492 615.641 88.2804C615.748 88.3116 615.862 88.3115 615.97 88.28L623.346 86.1838C623.468 86.1405 623.58 86.0735 623.676 85.9866C623.772 85.8997 623.85 85.7946 623.905 85.6775C624.063 85.3838 624.153 85.0582 624.167 84.725C624.192 84.3926 624.136 84.0592 624.002 83.7537L619.75 74.42C619.707 74.3056 619.64 74.2017 619.553 74.1156C619.467 74.0295 619.362 73.9632 619.247 73.9212C619.138 73.8885 619.021 73.8877 618.911 73.919C618.8 73.9502 618.701 74.0121 618.625 74.0975C618.405 74.3087 618.251 74.5799 618.183 74.8775" stroke="#303133" stroke-width="1.5" stroke-miterlimit="10"/>
<path d="M624.197 71.9375C624.187 71.5937 624.105 71.2559 623.958 70.9449C623.811 70.634 623.601 70.3566 623.342 70.13C622.764 69.5958 622.032 69.2573 621.25 69.1625C620.44 69.0402 619.612 69.1534 618.865 69.4888C618.17 69.7678 617.595 70.283 617.241 70.9438C617.08 71.2399 616.984 71.5673 616.96 71.9037C616.936 72.2401 616.985 72.5778 617.103 72.8938C617.362 73.5744 617.866 74.1335 618.516 74.4613L620.579 72.0388L624.197 71.9375Z" fill="#303133" stroke="#303133" stroke-width="1.875" stroke-miterlimit="10"/>
<path d="M619.859 74.1387C619.697 73.1637 619.859 72.59 620.357 72.4212C620.856 72.2525 621.527 72.5375 622.386 73.2725C622.898 73.7137 623.363 74.2062 623.774 74.7425C623.649 74.5075 623.514 74.2675 623.369 74.0225C622.743 72.9231 621.941 71.9338 620.995 71.0937C620.135 70.3587 619.457 70.075 618.962 70.2425C618.467 70.41 618.302 70.9837 618.467 71.9637C618.707 73.129 619.157 74.2408 619.795 75.245C620.094 75.749 620.425 76.2337 620.785 76.6962C620.344 75.8976 620.031 75.0345 619.859 74.1387Z" fill="#303133" stroke="#303133" stroke-width="1.5" stroke-miterlimit="10"/>
<path d="M621.28 70.0213L621.614 69.74C621.85 69.5375 622.236 69.5825 622.765 69.8675C623.363 70.2107 623.891 70.6636 624.321 71.2025L634.326 83.1088C634.784 83.6242 635.139 84.2224 635.373 84.8713C635.564 85.445 635.537 85.8313 635.301 86.03L634.967 86.3113C634.727 86.5138 634.341 86.4688 633.812 86.1838C633.215 85.8396 632.687 85.3868 632.256 84.8488L622.251 72.9425C621.793 72.4271 621.438 71.8288 621.205 71.18C621.014 70.6063 621.04 70.22 621.28 70.0213Z" fill="#303133" stroke="#303133" stroke-width="1.875" stroke-miterlimit="10"/>
<path d="M636.464 84.32C635.464 85.07 634.964 85.9812 634.964 87.0537C634.964 88.1262 635.464 89.035 636.464 89.78C637.524 90.5197 638.786 90.9162 640.079 90.9162C641.372 90.9162 642.633 90.5197 643.694 89.78C644.694 89.03 645.194 88.1212 645.194 87.0537C645.194 85.9862 644.694 85.075 643.694 84.32C642.632 83.5849 641.37 83.1911 640.079 83.1911C638.787 83.1911 637.526 83.5849 636.464 84.32Z" fill="#303133" stroke="#303133" stroke-width="1.875" stroke-miterlimit="10"/>
<path d="M630.899 82.7637C631.054 83.3613 631.348 83.9137 631.758 84.3762L635.508 88.8537C635.895 89.3356 636.389 89.7208 636.951 89.9787C637.461 90.2037 637.855 90.2037 638.129 89.9787C638.406 89.7575 638.481 89.3787 638.358 88.8537C638.202 88.2562 637.908 87.7037 637.499 87.2412L633.749 82.7637C633.362 82.2829 632.869 81.8979 632.309 81.6387C631.799 81.4137 631.405 81.4137 631.128 81.6387C630.854 81.86 630.775 82.2387 630.899 82.7637Z" fill="#303133" stroke="#303133" stroke-width="1.875" stroke-miterlimit="10"/>
<path d="M633.869 82.8875V86.765H641.391V82.8875H633.869Z" fill="#303133" stroke="#303133" stroke-width="1.5" stroke-miterlimit="10"/>
<path d="M605.913 98.6188C605.733 98.6859 605.571 98.7945 605.441 98.9357C605.311 99.0769 605.216 99.2468 605.164 99.4316C605.111 99.6164 605.103 99.8109 605.14 99.9993C605.177 100.188 605.258 100.365 605.376 100.516C605.626 100.876 605.998 101.133 606.422 101.24L622.172 105.699C622.592 105.828 623.044 105.804 623.447 105.631C623.627 105.563 623.788 105.454 623.918 105.312C624.047 105.17 624.142 105 624.194 104.816C624.246 104.631 624.254 104.436 624.218 104.248C624.181 104.059 624.101 103.882 623.984 103.73C623.73 103.373 623.358 103.118 622.934 103.01L607.184 98.5513C606.765 98.4219 606.315 98.4458 605.913 98.6188Z" fill="#303133" stroke="#303133" stroke-width="1.5" stroke-miterlimit="10"/>
<path d="M605.219 114.357C605.099 114.508 605.016 114.685 604.977 114.873C604.938 115.062 604.944 115.257 604.994 115.443C605.044 115.629 605.138 115.8 605.267 115.943C605.396 116.086 605.557 116.197 605.736 116.266C606.137 116.443 606.588 116.471 607.007 116.345L622.803 112.04C623.227 111.935 623.6 111.682 623.856 111.328C623.976 111.177 624.058 111.001 624.096 110.812C624.135 110.624 624.129 110.43 624.079 110.244C624.028 110.059 623.935 109.888 623.807 109.745C623.678 109.603 623.518 109.492 623.339 109.422C622.938 109.246 622.487 109.218 622.067 109.344L606.273 113.649C605.847 113.752 605.473 114.005 605.219 114.361" fill="#303133"/>
<path d="M605.219 114.357C605.099 114.508 605.016 114.685 604.977 114.873C604.938 115.062 604.944 115.257 604.994 115.443C605.044 115.629 605.138 115.8 605.267 115.943C605.396 116.086 605.557 116.197 605.736 116.266C606.137 116.443 606.588 116.471 607.007 116.345L622.803 112.04C623.227 111.935 623.6 111.682 623.856 111.328C623.976 111.177 624.058 111.001 624.096 110.812C624.135 110.624 624.129 110.43 624.079 110.244C624.028 110.059 623.935 109.888 623.807 109.745C623.678 109.603 623.518 109.492 623.339 109.422C622.938 109.246 622.487 109.218 622.067 109.344L606.273 113.649C605.847 113.752 605.473 114.005 605.219 114.361" stroke="#303133" stroke-width="1.5" stroke-miterlimit="10"/>
<path d="M643.69 84.305C644.69 85.055 645.19 85.9662 645.19 87.0387C645.19 88.1112 644.69 89.02 643.69 89.765C642.63 90.5048 641.369 90.9016 640.077 90.9016C638.785 90.9016 637.523 90.5048 636.464 89.765C635.464 89.015 634.964 88.1062 634.964 87.0387C634.964 85.9712 635.464 85.06 636.464 84.305C637.525 83.5702 638.786 83.1766 640.077 83.1766C641.368 83.1766 642.628 83.5702 643.69 84.305Z" fill="#303133" stroke="#303133" stroke-width="1.875" stroke-miterlimit="10"/>
<path d="M638.991 107.563L637.244 105.538C636.944 105.185 636.899 104.893 637.109 104.656C637.278 104.512 637.474 104.405 637.686 104.34C637.899 104.276 638.122 104.256 638.342 104.281H641.807C642.4 104.281 642.801 104.409 643.011 104.656C643.221 104.904 643.199 105.185 642.899 105.538L641.159 107.563C641.025 107.724 640.857 107.853 640.667 107.941C640.477 108.029 640.269 108.074 640.06 108.073C639.855 108.073 639.652 108.027 639.467 107.938C639.282 107.849 639.119 107.719 638.991 107.559" fill="#303133"/>
<path d="M638.991 107.563L637.244 105.538C636.944 105.185 636.899 104.893 637.109 104.656C637.278 104.512 637.474 104.405 637.686 104.34C637.899 104.276 638.122 104.256 638.342 104.281H641.807C642.4 104.281 642.801 104.409 643.011 104.656C643.221 104.904 643.199 105.185 642.899 105.538L641.159 107.563C641.025 107.724 640.857 107.853 640.667 107.941C640.477 108.029 640.269 108.074 640.06 108.073C639.855 108.073 639.652 108.027 639.467 107.938C639.282 107.849 639.119 107.719 638.991 107.559" stroke="#303133" stroke-width="1.875" stroke-miterlimit="10"/>
<path d="M641.534 107.068C641.385 107.402 641.347 107.775 641.426 108.132C641.505 108.489 641.696 108.811 641.972 109.051L639.595 108.53L641.534 107.068Z" fill="#303133" stroke="#303133" stroke-width="0.28125" stroke-miterlimit="10"/>
<path d="M632.223 80.705L633.67 83.2138L636.501 82.91C634.876 82.6825 633.379 81.901 632.264 80.6975H632.223" fill="#303133"/>
<path d="M632.223 80.705L633.67 83.2138L636.501 82.91C634.876 82.6825 633.379 81.901 632.264 80.6975H632.223" stroke="#303133" stroke-width="1.875" stroke-miterlimit="10"/>
<path d="M617.125 88.8388C617.163 88.5923 617.263 88.3596 617.416 88.1627C617.569 87.9658 617.769 87.8113 617.999 87.7138L616.562 87.5L617.121 88.8275" fill="#303133"/>
<path d="M617.125 88.8388C617.163 88.5923 617.263 88.3596 617.416 88.1627C617.569 87.9658 617.769 87.8113 617.999 87.7138L616.562 87.5L617.121 88.8275" stroke="#303133" stroke-width="1.875" stroke-miterlimit="10"/>
<path d="M641.744 106.445C641.338 106.843 641.066 107.359 640.967 107.919L640.784 107.053L641.744 106.445ZM641.23 108.725C641.438 108.943 641.705 109.095 641.999 109.164L641.403 109.31L641.23 108.725Z" fill="#303133" stroke="#303133" stroke-width="0.375" stroke-miterlimit="10"/>
<path d="M638.972 107.574L637.221 105.549C636.925 105.196 636.88 104.904 637.086 104.668C637.255 104.524 637.452 104.416 637.664 104.352C637.876 104.287 638.1 104.267 638.32 104.293H641.789C642.381 104.293 642.782 104.42 642.992 104.668C643.202 104.915 643.18 105.196 642.88 105.549L641.14 107.574C641.006 107.734 640.838 107.864 640.648 107.952C640.458 108.04 640.251 108.085 640.041 108.084C639.836 108.084 639.634 108.039 639.449 107.95C639.264 107.862 639.101 107.733 638.972 107.574Z" fill="#303133" stroke="#303133" stroke-width="1.5" stroke-miterlimit="10"/>
<path d="M639.625 106.272C639.709 106.572 639.718 106.887 639.651 107.191C639.583 107.518 639.437 107.824 639.228 108.084C638.911 108.486 638.491 108.795 638.013 108.976C637.624 109.128 637.204 109.182 636.79 109.134C636.38 109.087 635.991 108.929 635.665 108.676C635.604 108.63 635.535 108.597 635.46 108.579C635.386 108.562 635.309 108.56 635.234 108.575C635.071 108.606 634.925 108.694 634.821 108.822C634.758 108.905 634.712 108.999 634.686 109.1C634.666 109.195 634.666 109.294 634.686 109.389C634.716 109.497 634.779 109.592 634.866 109.662C635.341 110.037 635.911 110.271 636.513 110.337C637.118 110.408 637.732 110.329 638.301 110.109C638.645 109.978 638.971 109.803 639.269 109.587C639.58 109.36 639.858 109.091 640.098 108.789C640.44 108.366 640.679 107.869 640.795 107.337C640.904 106.842 640.891 106.327 640.757 105.837C640.682 105.565 640.565 105.305 640.409 105.069C640.249 104.824 640.052 104.606 639.824 104.424C639.763 104.376 639.693 104.342 639.617 104.325C639.542 104.307 639.464 104.307 639.389 104.322C639.308 104.334 639.23 104.362 639.161 104.404C639.091 104.447 639.031 104.503 638.984 104.57C638.876 104.693 638.82 104.853 638.83 105.016C638.833 105.093 638.852 105.169 638.886 105.238C638.92 105.308 638.969 105.369 639.029 105.417C639.308 105.634 639.508 105.935 639.599 106.276" fill="#303133"/>
<path d="M639.625 106.272C639.709 106.572 639.718 106.887 639.651 107.191C639.583 107.518 639.437 107.824 639.228 108.084C638.911 108.486 638.491 108.795 638.013 108.976C637.624 109.128 637.204 109.182 636.79 109.134C636.38 109.087 635.991 108.929 635.665 108.676C635.604 108.63 635.535 108.597 635.46 108.579C635.386 108.562 635.309 108.56 635.234 108.575C635.071 108.606 634.925 108.694 634.821 108.822C634.758 108.905 634.712 108.999 634.686 109.1C634.666 109.195 634.666 109.294 634.686 109.389C634.716 109.497 634.779 109.592 634.866 109.662C635.341 110.037 635.911 110.271 636.513 110.337C637.118 110.408 637.732 110.329 638.301 110.109C638.645 109.978 638.971 109.803 639.269 109.587C639.58 109.36 639.858 109.091 640.098 108.789C640.44 108.366 640.679 107.869 640.795 107.337C640.904 106.842 640.891 106.327 640.757 105.837C640.682 105.565 640.565 105.305 640.409 105.069C640.249 104.824 640.052 104.606 639.824 104.424C639.763 104.376 639.693 104.342 639.617 104.325C639.542 104.307 639.464 104.307 639.389 104.322C639.308 104.334 639.23 104.362 639.161 104.404C639.091 104.447 639.031 104.503 638.984 104.57C638.876 104.693 638.82 104.853 638.83 105.016C638.833 105.093 638.852 105.169 638.886 105.238C638.92 105.308 638.969 105.369 639.029 105.417C639.308 105.634 639.508 105.935 639.599 106.276" stroke="#303133" stroke-width="1.5" stroke-miterlimit="10"/>
<path d="M638.586 107.075C638.737 107.409 638.776 107.783 638.697 108.142C638.618 108.5 638.425 108.823 638.147 109.063L640.525 108.538L638.586 107.075Z" fill="#303133" stroke="#303133" stroke-width="1.875" stroke-miterlimit="10"/>
<path d="M637.967 106.411C638.376 106.808 638.649 107.324 638.747 107.885L638.931 107.023L637.967 106.411ZM638.485 108.691C638.281 108.905 638.021 109.057 637.735 109.13L638.331 109.276L638.504 108.691" fill="#303133"/>
<path d="M638.485 108.691C638.281 108.905 638.021 109.057 637.735 109.13L638.331 109.276L638.504 108.691M637.967 106.411C638.376 106.808 638.649 107.324 638.747 107.885L638.931 107.023L637.967 106.411Z" stroke="#303133" stroke-width="0.375" stroke-miterlimit="10"/>
<path d="M611.256 126.117H630.467H649.675H668.883V277.385H649.675H630.467H611.256V126.117Z" stroke="#303133" stroke-width="6.48375" stroke-linecap="round" stroke-linejoin="round"/>
<path d="M630.467 234.166V126.117" stroke="#303133" stroke-width="6.48375" stroke-linecap="round" stroke-linejoin="round"/>
<path d="M630.467 250.974V277.385" stroke="#303133" stroke-width="6.48375" stroke-linecap="round" stroke-linejoin="round"/>
<path d="M649.675 169.336V277.385" stroke="#303133" stroke-width="6.48375" stroke-linecap="round" stroke-linejoin="round"/>
<path d="M649.675 150.129V126.117" stroke="#303133" stroke-width="6.48375" stroke-linecap="round" stroke-linejoin="round"/>
<path d="M640.469 316.198L623.864 294.193L611.256 277.385" stroke="#303133" stroke-width="6.48375" stroke-linecap="round" stroke-linejoin="round"/>
<path d="M640.562 316.291L656.766 294.11L668.883 277.385" stroke="#303133" stroke-width="6.48375" stroke-linecap="round" stroke-linejoin="round"/>
<path d="M624.711 294.193H655.919" stroke="#303133" stroke-width="6.315" stroke-linecap="round" stroke-linejoin="round"/>
<path d="M640.562 308.083L650.564 295.07L660.569 282.061H640.562H620.552L630.557 295.07L640.562 308.083Z" fill="#303133" stroke="#303133" stroke-width="7.28625" stroke-linecap="round" stroke-linejoin="round"/>
</g>
<path d="M560.912 443H555.28V424.312C555.28 420.813 554.704 418.232 553.552 416.568C552.443 414.904 550.779 414.072 548.56 414.072C546.299 414.072 544.251 414.904 542.416 416.568C540.581 418.189 539.28 420.301 538.512 422.904V443H532.88V424.312C532.88 420.771 532.325 418.189 531.216 416.568C530.107 414.904 528.443 414.072 526.224 414.072C524.005 414.072 521.957 414.883 520.08 416.504C518.245 418.083 516.944 420.195 516.176 422.84V443H510.544V409.592H515.664V416.76C517.029 414.285 518.8 412.387 520.976 411.064C523.152 409.699 525.605 409.016 528.336 409.016C531.109 409.016 533.328 409.784 534.992 411.32C536.656 412.813 537.68 414.755 538.064 417.144C539.557 414.499 541.371 412.493 543.504 411.128C545.637 409.72 548.069 409.016 550.8 409.016C552.72 409.016 554.32 409.379 555.6 410.104C556.923 410.787 557.968 411.768 558.736 413.048C559.504 414.285 560.059 415.757 560.4 417.464C560.741 419.171 560.912 421.027 560.912 423.032V443ZM584.261 443.64C581.744 443.64 579.461 443.192 577.413 442.296C575.365 441.357 573.594 440.099 572.101 438.52C570.608 436.899 569.456 435.043 568.645 432.952C567.834 430.861 567.429 428.664 567.429 426.36C567.429 424.013 567.834 421.795 568.645 419.704C569.456 417.613 570.608 415.779 572.101 414.2C573.594 412.579 575.365 411.32 577.413 410.424C579.504 409.485 581.786 409.016 584.261 409.016C586.778 409.016 589.061 409.485 591.109 410.424C593.157 411.32 594.928 412.579 596.421 414.2C597.957 415.779 599.13 417.613 599.941 419.704C600.752 421.795 601.157 424.013 601.157 426.36C601.157 428.664 600.752 430.861 599.941 432.952C599.13 435.043 597.978 436.899 596.485 438.52C594.992 440.099 593.2 441.357 591.109 442.296C589.061 443.192 586.778 443.64 584.261 443.64ZM573.189 426.424C573.189 428.728 573.68 430.819 574.661 432.696C575.685 434.573 577.029 436.067 578.693 437.176C580.357 438.243 582.213 438.776 584.261 438.776C586.309 438.776 588.165 438.221 589.829 437.112C591.536 436.003 592.88 434.509 593.861 432.632C594.885 430.712 595.397 428.6 595.397 426.296C595.397 423.992 594.885 421.901 593.861 420.024C592.88 418.147 591.536 416.653 589.829 415.544C588.165 414.435 586.309 413.88 584.261 413.88C582.213 413.88 580.357 414.456 578.693 415.608C577.029 416.717 575.685 418.211 574.661 420.088C573.68 421.965 573.189 424.077 573.189 426.424ZM622.574 443.64C620.056 443.64 617.774 443.192 615.726 442.296C613.678 441.357 611.907 440.099 610.414 438.52C608.92 436.899 607.768 435.043 606.958 432.952C606.147 430.861 605.742 428.664 605.742 426.36C605.742 424.013 606.147 421.795 606.958 419.704C607.768 417.613 608.92 415.779 610.414 414.2C611.907 412.579 613.678 411.32 615.726 410.424C617.816 409.485 620.099 409.016 622.574 409.016C625.091 409.016 627.374 409.485 629.422 410.424C631.47 411.32 633.24 412.579 634.734 414.2C636.27 415.779 637.443 417.613 638.254 419.704C639.064 421.795 639.47 424.013 639.47 426.36C639.47 428.664 639.064 430.861 638.254 432.952C637.443 435.043 636.291 436.899 634.798 438.52C633.304 440.099 631.512 441.357 629.422 442.296C627.374 443.192 625.091 443.64 622.574 443.64ZM611.502 426.424C611.502 428.728 611.992 430.819 612.974 432.696C613.998 434.573 615.342 436.067 617.006 437.176C618.67 438.243 620.526 438.776 622.574 438.776C624.622 438.776 626.478 438.221 628.142 437.112C629.848 436.003 631.192 434.509 632.174 432.632C633.198 430.712 633.71 428.6 633.71 426.296C633.71 423.992 633.198 421.901 632.174 420.024C631.192 418.147 629.848 416.653 628.142 415.544C626.478 414.435 624.622 413.88 622.574 413.88C620.526 413.88 618.67 414.456 617.006 415.608C615.342 416.717 613.998 418.211 612.974 420.088C611.992 421.965 611.502 424.077 611.502 426.424ZM644.118 426.36C644.118 423.203 644.758 420.323 646.038 417.72C647.361 415.075 649.153 412.963 651.414 411.384C653.718 409.805 656.342 409.016 659.286 409.016C661.974 409.016 664.385 409.72 666.518 411.128C668.651 412.536 670.315 414.243 671.51 416.248V396.28H677.142V436.6C677.142 437.283 677.27 437.795 677.526 438.136C677.825 438.435 678.294 438.605 678.934 438.648V443C677.867 443.171 677.035 443.256 676.438 443.256C675.329 443.256 674.347 442.872 673.494 442.104C672.683 441.336 672.278 440.483 672.278 439.544V436.728C670.955 438.861 669.185 440.547 666.966 441.784C664.747 443.021 662.443 443.64 660.054 443.64C657.75 443.64 655.617 443.192 653.654 442.296C651.734 441.357 650.049 440.077 648.598 438.456C647.19 436.835 646.081 435 645.27 432.952C644.502 430.861 644.118 428.664 644.118 426.36ZM671.51 431.288V421.688C670.998 420.237 670.166 418.936 669.014 417.784C667.862 416.589 666.561 415.651 665.11 414.968C663.702 414.243 662.294 413.88 660.886 413.88C659.222 413.88 657.707 414.243 656.342 414.968C655.019 415.651 653.867 416.589 652.886 417.784C651.947 418.936 651.222 420.259 650.71 421.752C650.198 423.245 649.942 424.803 649.942 426.424C649.942 428.088 650.219 429.667 650.774 431.16C651.371 432.653 652.182 433.976 653.206 435.128C654.273 436.28 655.489 437.176 656.854 437.816C658.262 438.456 659.777 438.776 661.398 438.776C662.422 438.776 663.467 438.584 664.534 438.2C665.643 437.816 666.689 437.283 667.67 436.6C668.651 435.917 669.483 435.128 670.166 434.232C670.849 433.293 671.297 432.312 671.51 431.288ZM686.544 443V409.592H692.176V443H686.544ZM686.544 403.32V396.28H692.176V403.32H686.544ZM698.67 433.336C698.67 431.203 699.267 429.368 700.462 427.832C701.699 426.253 703.385 425.037 705.518 424.184C707.651 423.331 710.126 422.904 712.942 422.904C714.435 422.904 716.014 423.032 717.678 423.288C719.342 423.501 720.814 423.843 722.094 424.312V421.88C722.094 419.32 721.326 417.315 719.79 415.864C718.254 414.371 716.078 413.624 713.262 413.624C711.427 413.624 709.657 413.965 707.95 414.648C706.286 415.288 704.515 416.227 702.638 417.464L700.59 413.496C702.766 412.003 704.942 410.893 707.118 410.168C709.294 409.4 711.555 409.016 713.902 409.016C718.169 409.016 721.539 410.211 724.014 412.6C726.489 414.947 727.726 418.232 727.726 422.456V436.6C727.726 437.283 727.854 437.795 728.11 438.136C728.409 438.435 728.878 438.605 729.518 438.648V443C728.963 443.085 728.473 443.149 728.046 443.192C727.662 443.235 727.342 443.256 727.086 443.256C725.763 443.256 724.761 442.893 724.078 442.168C723.438 441.443 723.075 440.675 722.99 439.864L722.862 437.752C721.411 439.629 719.513 441.08 717.166 442.104C714.819 443.128 712.494 443.64 710.19 443.64C707.971 443.64 705.987 443.192 704.238 442.296C702.489 441.357 701.123 440.12 700.142 438.584C699.161 437.005 698.67 435.256 698.67 433.336ZM720.43 435.704C720.942 435.107 721.347 434.509 721.646 433.912C721.945 433.272 722.094 432.739 722.094 432.312V428.152C720.771 427.64 719.385 427.256 717.934 427C716.483 426.701 715.054 426.552 713.646 426.552C710.787 426.552 708.462 427.128 706.67 428.28C704.921 429.389 704.046 430.925 704.046 432.888C704.046 433.955 704.323 435 704.878 436.024C705.475 437.005 706.329 437.816 707.438 438.456C708.59 439.096 709.998 439.416 711.662 439.416C713.411 439.416 715.075 439.075 716.654 438.392C718.233 437.667 719.491 436.771 720.43 435.704ZM754.396 414.52C751.58 414.563 749.084 415.288 746.908 416.696C744.774 418.061 743.26 419.96 742.364 422.392V443H736.732V409.592H741.98V417.336C743.132 415.032 744.646 413.176 746.524 411.768C748.444 410.317 750.449 409.507 752.54 409.336C752.966 409.336 753.329 409.336 753.628 409.336C753.926 409.336 754.182 409.357 754.396 409.4V414.52ZM761.518 452.088C762.072 452.131 762.627 452.173 763.182 452.216C763.736 452.301 764.163 452.344 764.462 452.344C765.144 452.344 765.742 452.109 766.254 451.64C766.766 451.171 767.32 450.253 767.918 448.888C768.558 447.565 769.368 445.603 770.35 443L756.206 409.592H762.158L773.422 437.304L783.598 409.592H789.166L772.91 451.768C772.525 452.749 771.95 453.667 771.182 454.52C770.456 455.416 769.518 456.12 768.366 456.632C767.214 457.144 765.827 457.4 764.206 457.4C763.822 457.4 763.416 457.379 762.99 457.336C762.606 457.293 762.115 457.208 761.518 457.08V452.088Z" fill="black"/>
<path d="M241.8 524.96H251.88V527.168H244.168V545.632H241.8V524.96ZM262.728 534.08H265.192V550.144C265.192 551.648 265.576 551.936 267.336 551.936C268.136 551.936 272.168 551.936 273.256 551.936C275.144 551.936 275.432 550.752 275.688 545.216C276.264 545.696 277.256 546.144 277.96 546.304C277.608 552.352 276.872 554.144 273.384 554.144C272.616 554.144 267.848 554.144 267.112 554.144C263.72 554.144 262.728 553.28 262.728 550.144V534.08ZM262.984 527.104L264.488 525.28C268.36 526.592 273 528.896 275.528 530.624L273.992 532.736C271.528 530.88 266.856 528.48 262.984 527.104ZM257.384 536.64L259.688 537.12C259.208 541.408 258.216 546.528 255.912 549.6L253.736 548.288C255.88 545.472 256.936 540.8 257.384 536.64ZM276.04 536.672L278.184 535.616C281.064 539.264 283.464 544.096 284.264 547.488L281.864 548.64C281.16 545.28 278.76 540.288 276.04 536.672ZM298.728 528.992H310.536V531.104H298.728V528.992ZM301.928 545.856H312.68V547.776H301.928V545.856ZM301.864 551.136H312.616V553.152H301.864V551.136ZM297.032 535.136H315.656V537.344H297.032V535.136ZM303.944 525.152H306.216V536.448H303.944V525.152ZM300.904 540.48H313.768V554.336H311.432V542.528H303.144V554.464H300.904V540.48ZM312.744 526.848L314.92 527.552C311.176 535.264 305.064 541.12 297.864 544.768C297.544 544.288 296.776 543.328 296.264 542.848C303.432 539.584 309.32 534.016 312.744 526.848ZM287.176 546.176C287.08 545.728 286.728 544.672 286.472 544.096C287.176 543.968 287.88 543.168 288.904 541.984C289.96 540.832 293.352 536.32 295.56 532L297.48 533.152C294.92 537.504 291.784 541.856 288.744 544.992V545.024C288.744 545.024 287.176 545.728 287.176 546.176ZM287.176 546.176L287.08 544.288L288.232 543.488L296.264 542.048C296.2 542.656 296.2 543.52 296.232 544.032C288.84 545.504 287.784 545.824 287.176 546.176ZM286.952 538.496C286.856 538.016 286.472 536.896 286.216 536.32C286.76 536.192 287.304 535.424 287.976 534.336C288.68 533.248 290.92 529.056 292.136 525.216L294.312 526.176C292.744 530.144 290.504 534.304 288.36 537.216V537.28C288.36 537.28 286.952 538.016 286.952 538.496ZM286.952 538.496L286.888 536.8L288.008 536.064L293.832 535.456C293.736 536.064 293.672 536.896 293.672 537.344C288.328 538.048 287.464 538.24 286.952 538.496ZM286.408 550.304C289.096 549.76 293.192 548.8 297.192 547.872L297.416 549.92C293.672 550.88 289.8 551.84 286.888 552.608L286.408 550.304ZM322.632 527.296H343.592V554.08H341.064V529.728H325.096V554.208H322.632V527.296ZM324.264 538.4H342.12V540.768H324.264V538.4ZM324.232 549.728H342.184V552.128H324.232V549.728ZM352.968 527.392L354.6 525.92C356.36 527.424 358.6 529.504 359.688 530.848L357.96 532.576C356.936 531.168 354.728 528.96 352.968 527.392ZM355.368 553.92L354.952 551.648L355.624 550.624L361.288 546.784C361.448 547.424 361.8 548.384 362.024 548.864C356.68 552.672 355.848 553.312 355.368 553.92ZM350.472 535.2H357.256V537.504H350.472V535.2ZM355.368 553.952C355.112 553.44 354.44 552.544 354.024 552.16C354.6 551.712 355.56 550.624 355.56 549.056V535.2H357.96V550.816C357.96 550.816 355.368 552.992 355.368 553.952ZM364.04 537.888H376.424V540.192H364.04V537.888ZM363.016 537.888H365.448V550.208C365.448 551.488 365.832 551.776 367.88 551.776C368.872 551.776 373.704 551.776 374.952 551.776C376.936 551.776 377.256 550.976 377.448 546.432C378.024 546.88 379.08 547.264 379.784 547.424C379.4 552.64 378.6 554.112 375.112 554.112C374.28 554.112 368.52 554.112 367.752 554.112C364.136 554.112 363.016 553.312 363.016 550.208V537.888ZM362.408 527.392H377.512V541.824H375.112V529.76H362.408V527.392ZM392.168 554.752H382.088V552.544H389.8V534.08H392.168V554.752ZM423.012 539.232H451.332V541.408H423.012V539.232ZM437.252 544.96H449.22V547.072H437.252V544.96ZM436.196 540.192H438.628V552.32H436.196V540.192ZM429.924 545.408C431.876 550.656 436.1 551.648 442.372 551.68C443.588 551.68 450.276 551.68 451.94 551.648C451.588 552.192 451.204 553.248 451.076 553.952H442.276C434.788 553.952 430.436 552.608 427.94 546.144L429.924 545.408ZM428.548 542.432L430.948 542.784C429.924 548.096 427.62 552.064 424.1 554.624C423.748 554.176 422.82 553.312 422.276 552.928C425.668 550.72 427.716 547.136 428.548 542.432ZM428.708 532.608V535.232H445.38V532.608H428.708ZM428.708 528.288V530.88H445.38V528.288H428.708ZM426.372 526.464H447.812V537.056H426.372V526.464ZM454.564 538.208H483.844V540.832H454.564V538.208ZM501.028 527.712C498.372 531.744 492.964 536.832 487.268 540.16C486.916 539.616 486.244 538.752 485.7 538.24C491.524 534.944 497.092 529.536 499.62 525.216H502.116C505.604 530.176 511.46 535.136 516.708 537.824C516.1 538.432 515.524 539.264 515.076 539.968C509.86 536.96 503.972 531.904 501.028 527.712ZM499.748 535.712H502.276V554.592H499.748V535.712ZM521.924 540.736H544.26V543.072H521.924V540.736ZM521.924 550.208H544.164V552.576H521.924V550.208ZM520.804 531.36H545.54V554.432H543.076V533.76H523.172V554.56H520.804V531.36ZM531.812 525.152H534.276V551.456H531.812V525.152ZM560.161 552V529.28H575.073V531.264H562.401V539.616H573.089V541.472H562.401V552H560.161ZM578.652 528.64H580.828V548.224C580.828 549.056 580.978 549.6 581.276 549.856C581.575 550.112 581.938 550.24 582.364 550.24C582.748 550.24 583.132 550.197 583.516 550.112C583.9 550.027 584.231 549.941 584.508 549.856L584.892 551.616C584.487 551.787 583.986 551.925 583.388 552.032C582.812 552.139 582.311 552.192 581.884 552.192C580.903 552.192 580.114 551.904 579.516 551.328C578.94 550.752 578.652 549.963 578.652 548.96V528.64ZM587.115 545.12V535.328H589.291V544.736C589.291 546.635 589.611 548.053 590.251 548.992C590.912 549.931 591.883 550.4 593.163 550.4C594.016 550.4 594.838 550.219 595.627 549.856C596.438 549.472 597.152 548.939 597.771 548.256C598.39 547.552 598.859 546.741 599.179 545.824V535.328H601.355V549.376C601.355 549.675 601.419 549.899 601.547 550.048C601.675 550.176 601.867 550.251 602.123 550.272V552C601.867 552.021 601.664 552.032 601.515 552.032C601.366 552.053 601.227 552.064 601.099 552.064C600.672 552.021 600.299 551.851 599.979 551.552C599.68 551.253 599.52 550.891 599.499 550.464L599.435 548.224C598.71 549.504 597.718 550.507 596.459 551.232C595.222 551.957 593.878 552.32 592.427 552.32C590.678 552.32 589.355 551.712 588.459 550.496C587.563 549.28 587.115 547.488 587.115 545.12ZM614.275 551.2C614.104 551.264 613.838 551.381 613.475 551.552C613.112 551.723 612.675 551.872 612.163 552C611.651 552.128 611.096 552.192 610.499 552.192C609.88 552.192 609.294 552.075 608.739 551.84C608.206 551.605 607.779 551.253 607.459 550.784C607.139 550.293 606.979 549.696 606.979 548.992V537.056H604.675V535.328H606.979V529.696H609.155V535.328H612.995V537.056H609.155V548.384C609.198 548.981 609.411 549.429 609.795 549.728C610.2 550.027 610.659 550.176 611.171 550.176C611.768 550.176 612.312 550.08 612.803 549.888C613.294 549.675 613.592 549.525 613.699 549.44L614.275 551.2ZM624.994 551.2C624.823 551.264 624.556 551.381 624.194 551.552C623.831 551.723 623.394 551.872 622.882 552C622.37 552.128 621.815 552.192 621.218 552.192C620.599 552.192 620.012 552.075 619.458 551.84C618.924 551.605 618.498 551.253 618.178 550.784C617.858 550.293 617.698 549.696 617.698 548.992V537.056H615.394V535.328H617.698V529.696H619.874V535.328H623.714V537.056H619.874V548.384C619.916 548.981 620.13 549.429 620.514 549.728C620.919 550.027 621.378 550.176 621.89 550.176C622.487 550.176 623.031 550.08 623.522 549.888C624.012 549.675 624.311 549.525 624.418 549.44L624.994 551.2ZM634.631 552.32C633.437 552.32 632.327 552.096 631.303 551.648C630.279 551.179 629.394 550.549 628.647 549.76C627.901 548.949 627.314 548.021 626.887 546.976C626.482 545.931 626.279 544.811 626.279 543.616C626.279 542.059 626.631 540.629 627.335 539.328C628.061 538.027 629.053 536.992 630.311 536.224C631.57 535.435 632.999 535.04 634.599 535.04C636.242 535.04 637.671 535.435 638.887 536.224C640.125 537.013 641.095 538.059 641.799 539.36C642.503 540.64 642.855 542.048 642.855 543.584C642.855 543.755 642.855 543.925 642.855 544.096C642.855 544.245 642.845 544.363 642.823 544.448H628.551C628.658 545.643 628.989 546.709 629.543 547.648C630.119 548.565 630.855 549.301 631.751 549.856C632.669 550.389 633.661 550.656 634.727 550.656C635.815 550.656 636.839 550.379 637.799 549.824C638.781 549.269 639.463 548.544 639.847 547.648L641.735 548.16C641.394 548.949 640.871 549.664 640.167 550.304C639.463 550.944 638.631 551.445 637.671 551.808C636.733 552.149 635.719 552.32 634.631 552.32ZM628.487 542.88H640.807C640.722 541.664 640.391 540.597 639.815 539.68C639.261 538.763 638.525 538.048 637.607 537.536C636.711 537.003 635.719 536.736 634.631 536.736C633.543 536.736 632.551 537.003 631.655 537.536C630.759 538.048 630.023 538.773 629.447 539.712C628.893 540.629 628.573 541.685 628.487 542.88ZM654.533 537.248C653.082 537.291 651.802 537.696 650.693 538.464C649.605 539.232 648.837 540.288 648.389 541.632V552H646.213V535.328H648.261V539.328C648.837 538.155 649.594 537.205 650.533 536.48C651.493 535.755 652.506 535.349 653.573 535.264C653.786 535.243 653.967 535.232 654.117 535.232C654.287 535.232 654.426 535.243 654.533 535.264V537.248ZM663.974 532H675.494V534.272H663.974V532ZM668.934 525.12H671.238V554.528H668.934V525.12ZM668.838 533.408L670.374 533.984C669.254 539.008 666.854 545.12 664.39 548.288C664.134 547.648 663.558 546.688 663.142 546.112C665.446 543.328 667.814 537.888 668.838 533.408ZM671.11 536.64C671.974 537.536 675.11 541.28 675.814 542.208L674.31 544.16C673.446 542.624 670.918 539.04 669.894 537.76L671.11 536.64ZM679.142 525.12L681.542 525.664C680.198 530.624 678.054 535.328 675.526 538.432C675.078 538.048 674.086 537.248 673.51 536.896C676.006 534.08 677.99 529.664 679.142 525.12ZM678.694 530.368H691.046V532.64H677.638L678.694 530.368ZM690.118 530.368H692.486C692.486 530.368 692.454 531.296 692.454 531.648C692.006 546.656 691.558 551.648 690.342 553.184C689.702 554.112 688.998 554.368 687.974 554.496C686.982 554.592 685.382 554.56 683.814 554.464C683.782 553.792 683.494 552.768 683.078 552.096C684.774 552.256 686.342 552.256 686.982 552.256C687.558 552.288 687.878 552.16 688.23 551.744C689.19 550.624 689.702 545.312 690.118 530.944V530.368ZM682.95 541.152L684.774 540.544C686.182 542.944 687.558 546.08 688.07 548.064L686.054 548.8C685.638 546.784 684.294 543.584 682.95 541.152ZM680.102 535.072L682.438 535.584C681.446 539.2 680.069 543.744 678.885 546.528L676.966 546.016C678.118 543.168 679.43 538.4 680.102 535.072ZM674.598 545.792C677.478 545.536 681.862 545.024 686.15 544.48L686.214 546.368C682.246 547.008 678.214 547.584 675.11 548.032L674.598 545.792ZM704.454 531.904H725.158V533.856H704.454V531.904ZM706.342 540.544H723.046V542.368H706.342V540.544ZM704.902 544.928H724.454V546.912H704.902V544.928ZM713.318 525.376H715.654V550.304H713.318V525.376ZM706.758 527.712H722.758V538.144H706.534V536.224H720.39V529.632H706.758V527.712ZM695.75 527.168H702.661V529.312H695.75V527.168ZM701.798 527.168H702.15L702.534 527.04L704.166 527.552C702.694 530.912 700.294 535.872 698.342 539.68L696.166 539.072C698.15 535.328 700.614 530.144 701.798 527.456V527.168ZM698.661 536.288H703.91V538.432H698.374L698.661 536.288ZM702.918 536.288H703.398L703.845 536.224L705.222 536.576C704.262 545.888 701.478 551.616 697.318 554.624C696.934 554.144 696.038 553.28 695.493 552.96C699.558 550.24 702.118 545.024 702.918 536.768V536.288ZM698.758 540.992C701.35 549.824 707.302 551.424 715.43 551.424C716.774 551.424 723.686 551.424 725.382 551.392C724.998 551.936 724.55 553.024 724.39 553.728H715.366C706.118 553.728 699.942 551.776 696.838 541.728L698.758 540.992ZM730.63 530.272H740.358V551.2H730.63V549.024H738.118V532.416H730.63V530.272ZM729.19 530.272H731.43V553.76H729.19V530.272ZM730.47 539.168H739.302V541.312H730.47V539.168ZM734.086 525.056L736.678 525.536C736.038 527.52 735.238 529.728 734.598 531.168L732.678 530.688C733.222 529.152 733.83 526.72 734.086 525.056ZM744.902 530.176H754.726V532.416H744.902V530.176ZM753.894 530.176H756.134C756.134 530.176 756.134 531.072 756.134 531.424C755.622 546.112 755.174 551.072 753.894 552.64C753.19 553.568 752.454 553.856 751.334 553.952C750.246 554.08 748.358 554.016 746.566 553.92C746.502 553.216 746.214 552.224 745.766 551.584C747.846 551.744 749.766 551.776 750.502 551.776C751.142 551.776 751.526 551.68 751.878 551.264C752.934 550.112 753.446 544.8 753.894 530.688V530.176ZM745.574 524.992L747.878 525.536C746.694 530.304 744.806 535.008 742.597 538.048C742.182 537.664 741.19 536.992 740.614 536.672C742.79 533.856 744.55 529.44 745.574 524.992ZM744.102 538.496L745.958 537.408C747.782 539.68 749.99 542.784 751.014 544.672L748.966 545.952C748.006 544 745.862 540.832 744.102 538.496ZM761.286 527.232H787.782V529.504H761.286V527.232ZM760.102 538.656H788.806V540.96H760.102V538.656ZM779.174 528.416H781.638V554.592H779.174V528.416ZM767.782 528.416H770.214V537.28C770.214 543.488 769.414 550.048 762.054 554.688C761.638 554.144 760.774 553.312 760.166 552.928C767.046 548.672 767.782 542.816 767.782 537.28V528.416ZM802.054 526.688H820.838V528.896H802.054V526.688ZM801.254 526.688H803.59V535.488C803.59 541.056 803.046 549.088 799.27 554.464C798.822 554.048 797.83 553.408 797.254 553.184C800.902 548.032 801.254 540.768 801.254 535.488V526.688ZM807.622 538.784V541.6H817.382V538.784H807.622ZM807.622 534.24V537.024H817.382V534.24H807.622ZM805.446 532.384H819.622V543.456H805.446V532.384ZM806.566 545.248L808.742 545.76C807.75 548.352 806.15 551.008 804.582 552.736C804.134 552.384 803.206 551.776 802.694 551.488C804.262 549.856 805.702 547.552 806.566 545.248ZM815.622 545.824L817.702 544.96C819.174 546.944 820.838 549.6 821.478 551.36L819.302 552.352C818.694 550.592 817.126 547.84 815.622 545.824ZM811.334 528.416L813.926 528.928C813.446 530.592 812.934 532.448 812.486 533.664L810.374 533.152C810.726 531.84 811.174 529.792 811.334 528.416ZM811.206 542.72H813.478V552.064C813.478 553.248 813.286 553.888 812.39 554.208C811.526 554.56 810.15 554.592 808.006 554.56C807.91 553.952 807.622 553.088 807.333 552.48C808.87 552.544 810.246 552.512 810.662 552.512C811.078 552.48 811.206 552.384 811.206 552.032V542.72ZM793.19 527.168L794.566 525.44C796.486 526.336 798.822 527.776 799.942 528.896L798.502 530.816C797.414 529.664 795.11 528.128 793.19 527.168ZM791.622 535.808L792.998 534.016C794.918 534.848 797.254 536.192 798.438 537.248L797.03 539.2C795.91 538.112 793.574 536.672 791.622 535.808ZM792.294 552.768C793.734 550.272 795.718 546.048 797.158 542.432L799.11 543.776C797.766 547.168 795.974 551.136 794.438 554.112L792.294 552.768ZM835.814 528.64H853.126V530.848H835.814V528.64ZM840.166 535.52H848.486V537.536H840.166V535.52ZM836.55 540.224H852.294V542.24H836.55V540.224ZM839.654 544.672H849.382V546.688H839.654V544.672ZM847.014 529.216C848.294 532.416 850.854 535.584 853.574 537.12C853.062 537.568 852.326 538.4 851.942 538.976C849.062 537.12 846.438 533.536 844.998 529.856L847.014 529.216ZM848.55 544.672H850.918C850.918 544.672 850.854 545.344 850.79 545.696C850.214 550.72 849.606 552.864 848.646 553.76C848.038 554.304 847.43 554.496 846.438 554.56C845.606 554.592 844.07 554.592 842.438 554.496C842.406 553.856 842.118 552.96 841.734 552.384C843.366 552.512 844.966 552.544 845.606 552.544C846.15 552.544 846.502 552.512 846.79 552.256C847.494 551.648 848.038 549.696 848.55 544.992V544.672ZM840.166 541.248H842.502C841.83 543.552 840.998 546.368 840.294 548.224L838.086 547.808C838.79 546.016 839.622 543.36 840.166 541.248ZM827.238 528.576V534.336H832.806V528.576H827.238ZM825.158 526.528H834.95V536.384H825.158V526.528ZM829.318 535.296H831.398V550.08H829.318V535.296ZM825.19 539.328H827.141V551.04H825.19V539.328ZM823.622 550.72C826.758 550.048 831.59 548.864 836.23 547.712L836.486 549.792C832.134 550.944 827.494 552.096 824.102 552.96L823.622 550.72ZM830.214 540.768H835.686V542.88H830.214V540.768ZM842.662 525.088L845.03 525.344C844.102 530.432 841.542 535.808 836.102 539.328C835.782 538.752 835.046 537.92 834.534 537.568C839.622 534.464 841.958 529.472 842.662 525.088ZM857.766 527.296H882.982V529.664H857.766V527.296ZM856.102 540.896H884.806V543.296H856.102V540.896ZM860.006 531.872L862.15 531.2C863.462 533.536 864.774 536.576 865.222 538.464L862.918 539.232C862.47 537.344 861.222 534.24 860.006 531.872ZM878.566 531.072L881.126 531.776C879.91 534.368 878.406 537.44 877.158 539.36L875.11 538.688C876.294 536.672 877.798 533.376 878.566 531.072ZM869.126 528.224H871.59V554.56H869.126V528.224ZM893.318 550.816H911.334V553.152H893.318V550.816ZM892.23 540.928H912.614V554.496H910.086V543.232H894.661V554.56H892.23V540.928ZM898.662 525.024L901.286 525.952C899.366 529.664 896.678 534.08 894.534 536.896L892.454 536C894.566 533.152 897.19 528.448 898.662 525.024ZM906.342 530.208L908.23 528.8C911.494 531.392 915.27 535.168 916.934 537.824L914.886 539.424C913.286 536.768 909.638 532.896 906.342 530.208ZM888.454 534.944C894.534 534.784 904.39 534.368 913.51 533.952L913.382 536.256C904.39 536.736 894.726 537.152 888.614 537.408L888.454 534.944ZM924.07 527.296H945.03V554.08H942.502V529.728H926.534V554.208H924.07V527.296ZM925.702 538.4H943.558V540.768H925.702V538.4ZM925.67 549.728H943.622V552.128H925.67V549.728ZM954.406 527.392L956.038 525.92C957.798 527.424 960.038 529.504 961.126 530.848L959.398 532.576C958.374 531.168 956.166 528.96 954.406 527.392ZM956.806 553.92L956.39 551.648L957.062 550.624L962.726 546.784C962.886 547.424 963.238 548.384 963.462 548.864C958.118 552.672 957.286 553.312 956.806 553.92ZM951.91 535.2H958.694V537.504H951.91V535.2ZM956.806 553.952C956.55 553.44 955.878 552.544 955.462 552.16C956.038 551.712 956.998 550.624 956.998 549.056V535.2H959.398V550.816C959.398 550.816 956.806 552.992 956.806 553.952ZM965.478 537.888H977.862V540.192H965.478V537.888ZM964.454 537.888H966.885V550.208C966.885 551.488 967.27 551.776 969.318 551.776C970.31 551.776 975.142 551.776 976.39 551.776C978.374 551.776 978.694 550.976 978.886 546.432C979.462 546.88 980.518 547.264 981.222 547.424C980.838 552.64 980.038 554.112 976.55 554.112C975.718 554.112 969.958 554.112 969.19 554.112C965.574 554.112 964.454 553.312 964.454 550.208V537.888ZM963.846 527.392H978.95V541.824H976.55V529.76H963.846V527.392ZM987.494 529.248H1012.58V531.52H987.494V529.248ZM986.278 529.248H988.71V537.984C988.71 542.848 988.294 550.016 985.67 554.816C985.254 554.368 984.134 553.696 983.59 553.472C986.054 548.928 986.278 542.528 986.278 537.984V529.248ZM997.382 525.504L999.718 524.896C1000.52 526.304 1001.41 528.096 1001.8 529.248L999.366 530.016C998.982 528.8 998.118 526.912 997.382 525.504ZM990.854 536.32L992.934 535.488C994.342 538.976 995.878 543.424 996.582 546.4L994.342 547.36C993.702 544.352 992.166 539.808 990.854 536.32ZM997.798 534.56L999.974 533.92C1001.09 537.408 1002.28 541.888 1002.76 544.864L1000.45 545.536C1000.04 542.56 998.854 538.016 997.798 534.56ZM1008.65 533.728L1011.14 534.656C1009.41 540.672 1006.63 547.328 1003.17 552.64C1002.82 552.224 1002.09 551.552 1001.57 551.2C1004.81 546.176 1007.37 539.424 1008.65 533.728ZM989.094 550.784H1013V553.088H989.094V550.784ZM1020.68 527.392H1041.38V529.696H1020.68V527.392ZM1020.68 534.848H1041.35V537.12H1020.68V534.848ZM1020.52 542.496H1041.41V544.768H1020.52V542.496ZM1019.33 527.392H1021.7V539.008C1021.7 543.872 1021.13 550.496 1017.32 554.752C1016.93 554.272 1015.97 553.472 1015.46 553.152C1018.98 549.184 1019.33 543.488 1019.33 538.976V527.392ZM1040.42 527.392H1042.79V551.296C1042.79 552.864 1042.41 553.6 1041.35 554.016C1040.26 554.4 1038.41 554.432 1035.37 554.4C1035.27 553.76 1034.89 552.704 1034.53 552.064C1036.81 552.16 1038.98 552.128 1039.59 552.128C1040.2 552.096 1040.42 551.904 1040.42 551.296V527.392ZM1029.38 528.256H1031.81V554.272H1029.38V528.256ZM1052.65 544.224C1055.33 544.224 1057.51 546.4 1057.51 549.088C1057.51 551.776 1055.33 553.952 1052.65 553.952C1049.96 553.952 1047.75 551.776 1047.75 549.088C1047.75 546.4 1049.96 544.224 1052.65 544.224ZM1052.65 552.32C1054.44 552.32 1055.88 550.88 1055.88 549.088C1055.88 547.296 1054.44 545.856 1052.65 545.856C1050.85 545.856 1049.38 547.296 1049.38 549.088C1049.38 550.88 1050.85 552.32 1052.65 552.32Z" fill="black"/>
<defs>
<clipPath id="clip0_5_133">
<rect width="72" height="251.625" fill="white" transform="translate(604 68)"/>
</clipPath>
</defs>
</svg>
