<svg id="图层_1" data-name="图层 1" xmlns="http://www.w3.org/2000/svg" viewBox="0 0 1024 1024"><defs><style>.cls-1,.cls-2,.cls-3,.cls-4,.cls-5,.cls-6,.cls-9{fill:#303133;}.cls-1,.cls-2,.cls-3,.cls-4,.cls-5,.cls-6,.cls-7,.cls-8,.cls-9{stroke:#303133;}.cls-1,.cls-2,.cls-3,.cls-4,.cls-5,.cls-6{stroke-miterlimit:10;}.cls-1{stroke-width:3px;}.cls-2{stroke-width:5px;}.cls-3{stroke-width:4px;}.cls-4{stroke-width:3.99px;}.cls-5{stroke-width:0.75px;}.cls-7,.cls-8{fill:none;}.cls-7,.cls-8,.cls-9{stroke-linecap:round;stroke-linejoin:round;}.cls-7{stroke-width:17.29px;}.cls-8{stroke-width:16.84px;}.cls-9{stroke-width:19.43px;}</style></defs><path class="cls-1" d="M486.7,242.71a15,15,0,0,1,0,16.7c-1.68,2.31-3.7,3.47-6.08,3.47s-4.41-1.16-6.1-3.47a15.14,15.14,0,0,1,0-16.7,7.1,7.1,0,0,1,12.18,0"/><path class="cls-1" d="M539.25,245.08,523,252.53a3.46,3.46,0,0,1-2.46.21,2.5,2.5,0,0,1-1.7-1.4,2.53,2.53,0,0,1,0-2.21,3.44,3.44,0,0,1,1.77-1.71L536.91,240a3.46,3.46,0,0,1,2.46-.23,2.58,2.58,0,0,1,1.7,1.41,2.53,2.53,0,0,1-.05,2.21,3.42,3.42,0,0,1-1.77,1.72"/><path class="cls-1" d="M539.26,255.3,523,247.85a3.44,3.44,0,0,0-2.45-.22,2.56,2.56,0,0,0-1.67,3.64,3.4,3.4,0,0,0,1.77,1.71l16.24,7.45a3.42,3.42,0,0,0,2.46.22A2.56,2.56,0,0,0,541,257a3.46,3.46,0,0,0-1.77-1.72"/><path class="cls-2" d="M587.76,324.88c-.45,1.79-1.15,2.75-2.11,2.88h0c-1,.14-1.89-.6-2.8-2.2a16.33,16.33,0,0,1-1.87-6L562.7,187.76a16.59,16.59,0,0,1,.17-6.28c.44-1.78,1.14-2.73,2.1-2.87h0c1-.13,1.89.6,2.81,2.19a16.54,16.54,0,0,1,1.83,5.77L588,318.85a16.5,16.5,0,0,1-.2,6"/><path class="cls-2" d="M585.58,302.59l3,21.2a3.81,3.81,0,0,1-.61,2.83,2.9,2.9,0,0,1-2.27,1.34,3.33,3.33,0,0,1-2.6-.94,4.25,4.25,0,0,1-1.39-2.67l-3-21.19a3.92,3.92,0,0,1,.61-2.85,2.94,2.94,0,0,1,2.27-1.33,3.3,3.3,0,0,1,2.59.94,4.3,4.3,0,0,1,1.41,2.67"/><path class="cls-3" d="M565.61,191.34l8.26,30.44a6.38,6.38,0,0,1,.14,2.71,3.83,3.83,0,0,1-.94,2.13,1.56,1.56,0,0,1-1.61.47l-19.67-5.59a2.59,2.59,0,0,1-1.49-1.35,6,6,0,0,1-.71-2.55A5.57,5.57,0,0,1,550,215l11.38-24.9a2.3,2.3,0,0,1,1.34-1.32,1.61,1.61,0,0,1,1.67.47,4.18,4.18,0,0,1,1.18,2.07"/><path class="cls-2" d="M549.52,183.51a6.71,6.71,0,0,1,2.28-4.83,9.93,9.93,0,0,1,5.57-2.57,11.43,11.43,0,0,1,6.37.86,8.64,8.64,0,0,1,4.33,3.89,6.28,6.28,0,0,1,.37,5.2,7.71,7.71,0,0,1-3.78,4.17l-5.49-6.45-9.65-.27"/><path class="cls-3" d="M561.08,189.38c.43-2.61,0-4.13-1.32-4.59s-3.13.31-5.42,2.28a26.84,26.84,0,0,0-3.7,3.92c.33-.63.69-1.27,1.08-1.93a31.24,31.24,0,0,1,6.34-7.8q3.44-2.94,5.41-2.27c1.31.46,1.75,2,1.32,4.59a25.74,25.74,0,0,1-3.54,8.75,37.87,37.87,0,0,1-2.63,3.87,23.14,23.14,0,0,0,2.46-6.82"/><path class="cls-2" d="M557.3,178.4l-.89-.75c-.64-.54-1.66-.43-3.08.34a14.6,14.6,0,0,0-4.15,3.56L522.5,213.3a14.78,14.78,0,0,0-2.79,4.7c-.5,1.52-.44,2.55.2,3.09l.89.75c.64.53,1.66.42,3.08-.34a14.76,14.76,0,0,0,4.15-3.56l26.68-31.75a14.82,14.82,0,0,0,2.79-4.71c.5-1.52.44-2.55-.2-3.08"/><path class="cls-2" d="M516.8,216.53c2.68,2,4,4.45,4,7.29s-1.33,5.26-4,7.27a16.83,16.83,0,0,1-19.27,0q-4-3-4-7.27a8.94,8.94,0,0,1,4-7.29,16.93,16.93,0,0,1,19.27,0"/><path class="cls-2" d="M531.64,212.38a10.26,10.26,0,0,1-2.29,4.29l-10,12a10.8,10.8,0,0,1-3.84,3c-1.36.59-2.41.6-3.14,0h0c-.73-.59-.93-1.6-.61-3a10.62,10.62,0,0,1,2.29-4.29l10-12a10.6,10.6,0,0,1,3.84-3c1.36-.6,2.41-.6,3.14,0h0c.73.59.93,1.59.6,3"/><polyline class="cls-3" points="523.72 212.71 523.72 223.05 503.67 223.05 503.67 212.71 523.72 212.71"/><path class="cls-3" d="M598.27,254.66a3.25,3.25,0,0,1,1.44,5.06,4.89,4.89,0,0,1-2.79,1.93l-42,11.88a4.91,4.91,0,0,1-3.39-.17,3.26,3.26,0,0,1-1.43-5.07,4.92,4.92,0,0,1,2.8-1.92l42-11.89a4.88,4.88,0,0,1,3.38.18"/><path class="cls-3" d="M600.13,296.63a3.34,3.34,0,0,1,.59,2.9,3.27,3.27,0,0,1-2,2.18,4.87,4.87,0,0,1-3.38.22l-42.12-11.48a4.86,4.86,0,0,1-2.81-1.9,3.26,3.26,0,0,1,1.38-5.08,4.91,4.91,0,0,1,3.39-.21l42.12,11.48a4.93,4.93,0,0,1,2.81,1.89"/><path class="cls-2" d="M497.53,216.49q-4,3-4,7.29t4,7.27a16.85,16.85,0,0,0,19.28,0q4-3,4-7.27t-4-7.29a16.94,16.94,0,0,0-19.28,0m12.54,62,4.66-5.4c.8-.93.92-1.71.36-2.35a4.35,4.35,0,0,0-3.29-1h-9.25c-1.58,0-2.65.34-3.21,1s-.49,1.42.3,2.35l4.65,5.4a3.73,3.73,0,0,0,2.93,1.36,3.64,3.64,0,0,0,2.85-1.36"/><path class="cls-4" d="M508.81,275a5,5,0,0,0-.07,2.45,5.59,5.59,0,0,0,1.13,2.37,7.43,7.43,0,0,0,3.24,2.37,6.77,6.77,0,0,0,3.25.42,6,6,0,0,0,3-1.22,1.39,1.39,0,0,1,1.15-.26,1.76,1.76,0,0,1,1.09.65,1.91,1.91,0,0,1,.37.74,1.81,1.81,0,0,1,0,.77,1.38,1.38,0,0,1-.49.73,8.52,8.52,0,0,1-4.39,1.79,9.74,9.74,0,0,1-4.77-.61,10.8,10.8,0,0,1-4.78-3.51,9.17,9.17,0,0,1-1.86-3.86,8.19,8.19,0,0,1,.1-4,7.27,7.27,0,0,1,.93-2,6.69,6.69,0,0,1,1.56-1.71,1.41,1.41,0,0,1,1.16-.27,1.86,1.86,0,0,1,1.49,1.84,1.45,1.45,0,0,1-.54,1.07,4.26,4.26,0,0,0-1.51,2.28"/><path class="cls-2" d="M528.12,206.88l-3.86,6.7-7.55-.82a18.89,18.89,0,0,0,11.3-5.89h.11"/><path class="cls-2" d="M568.39,228.58a3.92,3.92,0,0,0-2.33-3.05l3.82-.49-1.49,3.54"/><path class="cls-2" d="M426.62,324.87c.44,1.79,1.14,2.75,2.1,2.89h0c1,.13,1.9-.61,2.81-2.21a16.53,16.53,0,0,0,1.87-6l18.27-131.83a16.81,16.81,0,0,0-.17-6.28c-.45-1.78-1.14-2.73-2.1-2.87h0c-1-.13-1.9.6-2.81,2.19a16.6,16.6,0,0,0-1.84,5.77L426.42,318.84a16.27,16.27,0,0,0,.2,6"/><path class="cls-2" d="M428.8,302.59l-3,21.19a3.86,3.86,0,0,0,.62,2.83,2.94,2.94,0,0,0,2.27,1.35,3.39,3.39,0,0,0,2.6-.95,4.3,4.3,0,0,0,1.39-2.67l3-21.19a3.88,3.88,0,0,0-.61-2.84,3,3,0,0,0-2.28-1.34,3.34,3.34,0,0,0-2.59.94,4.31,4.31,0,0,0-1.4,2.68"/><path class="cls-3" d="M448.77,191.34l-8.26,30.44a6.21,6.21,0,0,0-.15,2.71,3.9,3.9,0,0,0,.94,2.12,1.57,1.57,0,0,0,1.62.47l19.67-5.59a2.61,2.61,0,0,0,1.49-1.35,5.91,5.91,0,0,0,.7-2.54,5.46,5.46,0,0,0-.44-2.59L453,190.12a2.26,2.26,0,0,0-1.34-1.33,1.61,1.61,0,0,0-1.66.47,4.17,4.17,0,0,0-1.18,2.08"/><path class="cls-2" d="M464.86,183.5a6.69,6.69,0,0,0-2.28-4.82A10,10,0,0,0,457,176.1a11.38,11.38,0,0,0-6.36.87,8.5,8.5,0,0,0-4.33,3.88,6.28,6.28,0,0,0-.37,5.2,7.78,7.78,0,0,0,3.77,4.18l5.5-6.46,9.65-.27"/><path class="cls-3" d="M453.29,189.37c-.43-2.6,0-4.13,1.33-4.58s3.12.31,5.41,2.27a26.29,26.29,0,0,1,3.7,3.92q-.5-.94-1.08-1.92a30.88,30.88,0,0,0-6.33-7.81q-3.44-2.94-5.42-2.27t-1.32,4.59a26.15,26.15,0,0,0,3.54,8.75,37.31,37.31,0,0,0,2.64,3.87,23.19,23.19,0,0,1-2.47-6.82"/><path class="cls-2" d="M457.08,178.39l.89-.75c.63-.54,1.66-.42,3.07.34a14.62,14.62,0,0,1,4.15,3.56l26.68,31.75a14.42,14.42,0,0,1,2.79,4.7c.51,1.53.44,2.56-.19,3.09l-.89.75c-.64.54-1.67.42-3.08-.34a14.76,14.76,0,0,1-4.15-3.56l-26.68-31.75a14.42,14.42,0,0,1-2.79-4.7c-.51-1.53-.44-2.56.2-3.09"/><path class="cls-2" d="M497.57,216.52q-4,3-4,7.29t4,7.27a16.85,16.85,0,0,0,19.28,0q4-3,4-7.27t-4-7.29a16.94,16.94,0,0,0-19.28,0"/><path class="cls-2" d="M482.73,212.37a10.47,10.47,0,0,0,2.29,4.3l10,11.94a10.63,10.63,0,0,0,3.85,3c1.36.6,2.41.6,3.14,0h0c.74-.59.94-1.6.61-3a10.47,10.47,0,0,0-2.29-4.3l-10-11.94a10.69,10.69,0,0,0-3.84-3c-1.36-.6-2.41-.6-3.15,0h0c-.73.59-.94,1.6-.61,3"/><polyline class="cls-3" points="490.65 212.7 490.65 223.04 510.71 223.04 510.71 212.7 490.65 212.7"/><path class="cls-3" d="M416.1,254.65a3.26,3.26,0,0,0-1.43,5.06,4.83,4.83,0,0,0,2.79,1.93l42,11.89a4.94,4.94,0,0,0,3.4-.18,3.28,3.28,0,0,0,1.43-5.07,4.92,4.92,0,0,0-2.8-1.92l-42-11.89a4.91,4.91,0,0,0-3.39.18"/><path class="cls-3" d="M414.25,296.62a3.27,3.27,0,0,0,1.38,5.09,4.91,4.91,0,0,0,3.39.21l42.12-11.48a4.93,4.93,0,0,0,2.81-1.9,3.27,3.27,0,0,0-1.38-5.08,4.91,4.91,0,0,0-3.39-.21l-42.12,11.48a4.86,4.86,0,0,0-2.81,1.9"/><path class="cls-2" d="M516.84,216.48q4,3,4,7.29t-4,7.27a16.83,16.83,0,0,1-19.27,0q-4-3-4-7.27t4-7.29a16.93,16.93,0,0,1,19.27,0"/><path class="cls-2" d="M504.31,278.5l-4.66-5.4c-.8-.94-.92-1.72-.36-2.35a4.3,4.3,0,0,1,3.29-1h9.24c1.58,0,2.65.34,3.21,1s.5,1.41-.3,2.35l-4.64,5.4a3.77,3.77,0,0,1-2.93,1.36,3.63,3.63,0,0,1-2.85-1.37"/><path class="cls-5" d="M511.09,277.18a4.55,4.55,0,0,0,1.17,5.29l-6.34-1.39,5.17-3.9"/><path class="cls-2" d="M486.26,206.88l3.86,6.69,7.55-.81a19,19,0,0,1-11.3-5.9l-.11,0"/><path class="cls-2" d="M446,228.57a3.9,3.9,0,0,1,2.33-3L444.5,225l1.49,3.54"/><path class="cls-6" d="M511.65,275.52a7.28,7.28,0,0,0-2.07,3.93l-.49-2.31,2.56-1.62m-1.37,6.08a4.13,4.13,0,0,0,2.05,1.17l-1.59.39-.46-1.56"/><path class="cls-3" d="M504.26,278.53l-4.67-5.4c-.79-.94-.91-1.72-.36-2.35a4.31,4.31,0,0,1,3.29-1h9.25c1.58,0,2.65.34,3.21,1s.5,1.41-.3,2.35l-4.64,5.4a3.79,3.79,0,0,1-2.93,1.36,3.65,3.65,0,0,1-2.85-1.36"/><path class="cls-3" d="M506,275.06a5.07,5.07,0,0,1,.07,2.45,5.63,5.63,0,0,1-1.13,2.38,7.51,7.51,0,0,1-3.24,2.38,6.81,6.81,0,0,1-3.26.42,6,6,0,0,1-3-1.22,1.44,1.44,0,0,0-1.15-.27,1.87,1.87,0,0,0-1.1.66,2,2,0,0,0-.36.74,1.81,1.81,0,0,0,0,.77,1.42,1.42,0,0,0,.48.73,8.6,8.6,0,0,0,4.39,1.8,10,10,0,0,0,4.77-.61,11.11,11.11,0,0,0,2.58-1.39,11.44,11.44,0,0,0,2.21-2.13,9.27,9.27,0,0,0,1.86-3.87,8.35,8.35,0,0,0-.1-4,7.21,7.21,0,0,0-.93-2.05,7.31,7.31,0,0,0-1.56-1.72,1.41,1.41,0,0,0-1.16-.27,1.59,1.59,0,0,0-1.08.66,1.65,1.65,0,0,0-.41,1.19,1.44,1.44,0,0,0,.53,1.07,4.3,4.3,0,0,1,1.52,2.29"/><path class="cls-2" d="M503.23,277.2a4.54,4.54,0,0,1-1.17,5.3l6.34-1.4-5.17-3.9"/><path class="cls-6" d="M501.58,275.43a7.23,7.23,0,0,1,2.08,3.93l.49-2.3-2.57-1.63m1.38,6.08a4.18,4.18,0,0,1-2,1.17l1.59.39.46-1.56"/><polygon class="cls-7" points="430.35 327.98 481.58 327.98 532.8 327.98 584.02 327.98 584.02 731.36 532.8 731.36 481.58 731.36 430.35 731.36 430.35 327.98"/><line class="cls-7" x1="481.58" y1="616.11" x2="481.58" y2="327.98"/><line class="cls-7" x1="481.58" y1="660.93" x2="481.58" y2="731.36"/><line class="cls-7" x1="532.8" y1="443.23" x2="532.8" y2="731.36"/><line class="cls-7" x1="532.8" y1="392.01" x2="532.8" y2="327.98"/><polyline class="cls-7" points="508.25 834.86 463.97 776.18 430.35 731.36"/><polyline class="cls-7" points="508.5 835.11 551.71 775.96 584.02 731.36"/><line class="cls-8" x1="466.23" y1="776.18" x2="549.45" y2="776.18"/><polygon class="cls-9" points="508.5 813.22 535.17 778.52 561.85 743.83 508.5 743.83 455.14 743.83 481.82 778.52 508.5 813.22"/></svg>
